<svg width="1440" height="577" viewBox="0 0 1440 577" fill="none" xmlns="http://www.w3.org/2000/svg">
<g opacity="0.32">
<rect width="200" height="200" transform="matrix(0 -1 -1 0 120 177)" fill="#E3F3EB"/>
<path d="M-80 177V-23L120 177H-80Z" fill="#B3E3CB"/>
<rect width="200" height="200" transform="matrix(0 1 1 0 120 -23)" fill="#E3F3EB"/>
<path d="M120 -23C120 3.26437 125.173 29.2716 135.224 53.5367C145.275 77.8018 160.007 99.8496 178.579 118.421C197.15 136.993 219.198 151.725 243.463 161.776C267.728 171.827 293.736 177 320 177L320 -23H120Z" fill="#EEFFF6"/>
<rect x="520" y="-23" width="200" height="200" transform="rotate(90 520 -23)" fill="#E3F3EB"/>
<path d="M520 -23C520 3.26437 514.827 29.2716 504.776 53.5367C494.725 77.8018 479.993 99.8496 461.421 118.421C442.85 136.993 420.802 151.725 396.537 161.776C372.272 171.827 346.264 177 320 177L320 -23H520Z" fill="#D3EADE"/>
<rect x="520" y="-23" width="200" height="200" fill="#E3F3EB"/>
<path d="M620 -23C620 32.2285 664.772 77 720 77V-23H620Z" fill="#EEFFF6"/>
<path d="M620 177C620 121.772 664.772 77 720 77V177H620Z" fill="#B3E3CB"/>
<path d="M620 -23C620 32.2285 575.228 77 520 77V-23H620Z" fill="#EEFFF6"/>
<path d="M620 177C620 121.772 575.228 77 520 77V177H620Z" fill="#D3EADE"/>
<rect width="200" height="200" transform="matrix(1 0 0 -1 720 177)" fill="#E3F3EB"/>
<path d="M720 77C720 21.7715 764.772 -23 820 -23V177C764.772 177 720 132.228 720 77Z" fill="#D3EADE"/>
<path d="M920 77C920 21.7715 875.228 -23 820 -23V177C875.228 177 920 132.228 920 77Z" fill="#D3EADE"/>
<rect x="920" y="-23" width="200" height="200" fill="#EEFFF6"/>
<rect x="920" y="-23" width="100" height="200" fill="#EEFFF6"/>
<path d="M1020 -23C1020 32.2285 1064.77 77 1120 77V-23H1020Z" fill="#D3EADE"/>
<path d="M1020 177C1020 121.772 1064.77 77 1120 77V177H1020Z" fill="#E3F3EB"/>
<rect width="200" height="200" transform="matrix(-1 0 0 1 1320 -23)" fill="#E3F3EB"/>
<path d="M1320 177H1120L1320 -23V177Z" fill="#B3E3CB"/>
<rect x="1320" y="177" width="200" height="200" transform="rotate(-90 1320 177)" fill="#E3F3EB"/>
<path d="M1320 77C1375.23 77 1420 32.2285 1420 -23H1320V77Z" fill="#EEFFF6"/>
<path d="M1520 77C1464.77 77 1420 32.2285 1420 -23H1520V77Z" fill="#D3EADE"/>
<path d="M1320 77C1375.23 77 1420 121.772 1420 177H1320V77Z" fill="#EEFFF6"/>
<path d="M1520 77C1464.77 77 1420 121.772 1420 177H1520V77Z" fill="#D3EADE"/>
<rect width="200" height="200" transform="matrix(-1 0 0 1 120 177)" fill="#E3F3EB"/>
<path d="M120 277C120 332.228 75.2285 377 20 377L20 177C75.2285 177 120 221.772 120 277Z" fill="#D3EADE"/>
<path d="M-80 277C-80 332.228 -35.2285 377 20 377L20 177C-35.2285 177 -80 221.772 -80 277Z" fill="#EEFFF6"/>
<rect width="200" height="200" transform="matrix(0 -1 -1 0 320 377)" fill="#E3F3EB"/>
<path d="M120 377V352L145 377H120Z" fill="#B3E3CB"/>
<path d="M145 377V352L170 377H145Z" fill="#B3E3CB"/>
<path d="M170 377V352L195 377H170Z" fill="#B3E3CB"/>
<path d="M195 377V352L220 377H195Z" fill="#B3E3CB"/>
<path d="M220 377V352L245 377H220Z" fill="#B3E3CB"/>
<path d="M245 377V352L270 377H245Z" fill="#B3E3CB"/>
<path d="M270 377V352L295 377H270Z" fill="#B3E3CB"/>
<path d="M295 377V352L320 377H295Z" fill="#B3E3CB"/>
<path d="M120 352V327L145 352H120Z" fill="#B3E3CB"/>
<path d="M145 352V327L170 352H145Z" fill="#B3E3CB"/>
<path d="M170 352V327L195 352H170Z" fill="#B3E3CB"/>
<path d="M195 352V327L220 352H195Z" fill="#B3E3CB"/>
<path d="M220 352V327L245 352H220Z" fill="#B3E3CB"/>
<path d="M245 352V327L270 352H245Z" fill="#B3E3CB"/>
<path d="M270 352V327L295 352H270Z" fill="#B3E3CB"/>
<path d="M120 327V302L145 327H120Z" fill="#B3E3CB"/>
<path d="M145 327V302L170 327H145Z" fill="#B3E3CB"/>
<path d="M170 327V302L195 327H170Z" fill="#B3E3CB"/>
<path d="M195 327V302L220 327H195Z" fill="#B3E3CB"/>
<path d="M220 327V302L245 327H220Z" fill="#B3E3CB"/>
<path d="M245 327V302L270 327H245Z" fill="#B3E3CB"/>
<path d="M120 302V277L145 302H120Z" fill="#B3E3CB"/>
<path d="M145 302V277L170 302H145Z" fill="#B3E3CB"/>
<path d="M170 302V277L195 302H170Z" fill="#B3E3CB"/>
<path d="M195 302V277L220 302H195Z" fill="#B3E3CB"/>
<path d="M220 302V277L245 302H220Z" fill="#B3E3CB"/>
<path d="M120 277V252L145 277H120Z" fill="#B3E3CB"/>
<path d="M145 277V252L170 277H145Z" fill="#B3E3CB"/>
<path d="M170 277V252L195 277H170Z" fill="#B3E3CB"/>
<path d="M195 277V252L220 277H195Z" fill="#B3E3CB"/>
<path d="M120 252V227L145 252H120Z" fill="#B3E3CB"/>
<path d="M145 252V227L170 252H145Z" fill="#B3E3CB"/>
<path d="M170 252V227L195 252H170Z" fill="#B3E3CB"/>
<path d="M120 227V202L145 227H120Z" fill="#B3E3CB"/>
<path d="M145 227V202L170 227H145Z" fill="#B3E3CB"/>
<path d="M120 202V177L145 202H120Z" fill="#B3E3CB"/>
<rect x="320" y="377" width="200" height="200" transform="rotate(-90 320 377)" fill="#E3F3EB"/>
<rect x="520" y="377" width="200" height="200" transform="rotate(-90 520 377)" fill="#E3F3EB"/>
<path d="M720 377V352L695 377H720Z" fill="#B3E3CB"/>
<path d="M695 377V352L670 377H695Z" fill="#B3E3CB"/>
<path d="M670 377V352L645 377H670Z" fill="#B3E3CB"/>
<path d="M645 377V352L620 377H645Z" fill="#B3E3CB"/>
<path d="M620 377V352L595 377H620Z" fill="#B3E3CB"/>
<path d="M595 377V352L570 377H595Z" fill="#B3E3CB"/>
<path d="M570 377V352L545 377H570Z" fill="#B3E3CB"/>
<path d="M545 377V352L520 377H545Z" fill="#B3E3CB"/>
<path d="M720 352V327L695 352H720Z" fill="#B3E3CB"/>
<path d="M695 352V327L670 352H695Z" fill="#B3E3CB"/>
<path d="M670 352V327L645 352H670Z" fill="#B3E3CB"/>
<path d="M645 352V327L620 352H645Z" fill="#B3E3CB"/>
<path d="M620 352V327L595 352H620Z" fill="#B3E3CB"/>
<path d="M595 352V327L570 352H595Z" fill="#B3E3CB"/>
<path d="M570 352V327L545 352H570Z" fill="#B3E3CB"/>
<path d="M720 327V302L695 327H720Z" fill="#B3E3CB"/>
<path d="M695 327V302L670 327H695Z" fill="#B3E3CB"/>
<path d="M670 327V302L645 327H670Z" fill="#B3E3CB"/>
<path d="M645 327V302L620 327H645Z" fill="#B3E3CB"/>
<path d="M620 327V302L595 327H620Z" fill="#B3E3CB"/>
<path d="M595 327V302L570 327H595Z" fill="#B3E3CB"/>
<path d="M720 302V277L695 302H720Z" fill="#B3E3CB"/>
<path d="M695 302V277L670 302H695Z" fill="#B3E3CB"/>
<path d="M670 302V277L645 302H670Z" fill="#B3E3CB"/>
<path d="M645 302V277L620 302H645Z" fill="#B3E3CB"/>
<path d="M620 302V277L595 302H620Z" fill="#B3E3CB"/>
<path d="M720 277V252L695 277H720Z" fill="#B3E3CB"/>
<path d="M695 277V252L670 277H695Z" fill="#B3E3CB"/>
<path d="M670 277V252L645 277H670Z" fill="#B3E3CB"/>
<path d="M645 277V252L620 277H645Z" fill="#B3E3CB"/>
<path d="M720 252V227L695 252H720Z" fill="#B3E3CB"/>
<path d="M695 252V227L670 252H695Z" fill="#B3E3CB"/>
<path d="M670 252V227L645 252H670Z" fill="#B3E3CB"/>
<path d="M720 227V202L695 227H720Z" fill="#B3E3CB"/>
<path d="M695 227V202L670 227H695Z" fill="#B3E3CB"/>
<path d="M720 202V177L695 202H720Z" fill="#B3E3CB"/>
<rect x="720" y="377" width="200" height="200" transform="rotate(-90 720 377)" fill="#EEFFF6"/>
<rect x="920" y="377" width="200" height="200" transform="rotate(-90 920 377)" fill="#E3F3EB"/>
<rect x="920" y="377" width="100" height="200" transform="rotate(-90 920 377)" fill="#B3E3CB"/>
<path d="M1120 277C1064.77 277 1020 232.228 1020 177H1120V277Z" fill="#D3EADE"/>
<rect x="1320" y="177" width="200" height="200" transform="rotate(90 1320 177)" fill="#E3F3EB"/>
<path d="M1320 377C1320 350.736 1314.83 324.728 1304.78 300.463C1294.72 276.198 1279.99 254.15 1261.42 235.579C1242.85 217.007 1220.8 202.275 1196.54 192.224C1172.27 182.173 1146.26 177 1120 177L1120 377H1320Z" fill="#EEFFF6"/>
<path d="M1220 377C1220 363.868 1217.41 350.864 1212.39 338.732C1207.36 326.599 1200 315.575 1190.71 306.289C1181.42 297.003 1170.4 289.638 1158.27 284.612C1146.14 279.587 1133.13 277 1120 277L1120 377H1220Z" fill="#D3EADE"/>
<rect width="200" height="200" transform="matrix(0 1 1 0 1320 177)" fill="#E3F3EB"/>
<path d="M1420 377C1420 321.772 1464.77 277 1520 277V377H1420Z" fill="#B3E3CB"/>
<rect x="-80" y="577" width="200" height="200" transform="rotate(-90 -80 577)" fill="#E3F3EB"/>
<path d="M-80 477C-24.7715 477 20 432.228 20 377H-80V477Z" fill="#EEFFF6"/>
<path d="M120 477C64.7715 477 20 432.228 20 377H120V477Z" fill="#D3EADE"/>
<path d="M-80 477C-24.7715 477 20 521.772 20 577H-80V477Z" fill="#EEFFF6"/>
<path d="M120 477C64.7715 477 20 521.772 20 577H120V477Z" fill="#D3EADE"/>
<rect width="200" height="200" transform="matrix(0 -1 -1 0 320 577)" fill="#E3F3EB"/>
<path d="M320 377C320 403.264 314.827 429.272 304.776 453.537C294.725 477.802 279.993 499.85 261.421 518.421C242.85 536.993 220.802 551.725 196.537 561.776C172.272 571.827 146.264 577 120 577L120 377H320Z" fill="#B3E3CB"/>
<path d="M220 377C220 390.132 217.413 403.136 212.388 415.268C207.362 427.401 199.997 438.425 190.711 447.711C181.425 456.997 170.401 464.362 158.268 469.388C146.136 474.413 133.132 477 120 477L120 377H220Z" fill="#D3EADE"/>
<rect x="320" y="577" width="200" height="200" transform="rotate(-90 320 577)" fill="#E3F3EB"/>
<path d="M320 377C320 403.264 325.173 429.272 335.224 453.537C345.275 477.802 360.007 499.85 378.579 518.421C397.15 536.993 419.198 551.725 443.463 561.776C467.728 571.827 493.736 577 520 577L520 377H320Z" fill="#EEFFF6"/>
<rect width="200" height="200" transform="matrix(0 -1 -1 0 720 577)" fill="#B3E3CB"/>
<path d="M520 577V377L720 577H520Z" fill="#B3E3CB"/>
<rect width="200" height="200" transform="matrix(0 1 1 0 720 377)" fill="#E3F3EB"/>
<path d="M820 477C875.228 477 920 521.772 920 577H720C720 521.772 764.772 477 820 477Z" fill="#D3EADE"/>
<path d="M820 477C875.228 477 920 432.228 920 377L720 377C720 432.228 764.772 477 820 477Z" fill="#EEFFF6"/>
<rect x="920" y="577" width="200" height="200" transform="rotate(-90 920 577)" fill="#E3F3EB"/>
<path d="M1020 477C1075.23 477 1120 432.228 1120 377H920C920 432.228 964.772 477 1020 477Z" fill="#D3EADE"/>
<rect width="200" height="200" transform="matrix(0 -1 -1 0 1320 577)" fill="#E3F3EB"/>
<path d="M1120 577V552L1145 577H1120Z" fill="#B3E3CB"/>
<path d="M1145 577V552L1170 577H1145Z" fill="#B3E3CB"/>
<path d="M1170 577V552L1195 577H1170Z" fill="#B3E3CB"/>
<path d="M1195 577V552L1220 577H1195Z" fill="#B3E3CB"/>
<path d="M1220 577V552L1245 577H1220Z" fill="#B3E3CB"/>
<path d="M1245 577V552L1270 577H1245Z" fill="#B3E3CB"/>
<path d="M1270 577V552L1295 577H1270Z" fill="#B3E3CB"/>
<path d="M1295 577V552L1320 577H1295Z" fill="#B3E3CB"/>
<path d="M1120 552V527L1145 552H1120Z" fill="#B3E3CB"/>
<path d="M1145 552V527L1170 552H1145Z" fill="#B3E3CB"/>
<path d="M1170 552V527L1195 552H1170Z" fill="#B3E3CB"/>
<path d="M1195 552V527L1220 552H1195Z" fill="#B3E3CB"/>
<path d="M1220 552V527L1245 552H1220Z" fill="#B3E3CB"/>
<path d="M1245 552V527L1270 552H1245Z" fill="#B3E3CB"/>
<path d="M1270 552V527L1295 552H1270Z" fill="#B3E3CB"/>
<path d="M1295 552V527L1320 552H1295Z" fill="#B3E3CB"/>
<path d="M1120 527V502L1145 527H1120Z" fill="#B3E3CB"/>
<path d="M1145 527V502L1170 527H1145Z" fill="#B3E3CB"/>
<path d="M1170 527V502L1195 527H1170Z" fill="#B3E3CB"/>
<path d="M1195 527V502L1220 527H1195Z" fill="#B3E3CB"/>
<path d="M1220 527V502L1245 527H1220Z" fill="#B3E3CB"/>
<path d="M1245 527V502L1270 527H1245Z" fill="#B3E3CB"/>
<path d="M1270 527V502L1295 527H1270Z" fill="#B3E3CB"/>
<path d="M1295 527V502L1320 527H1295Z" fill="#B3E3CB"/>
<path d="M1120 502V477L1145 502H1120Z" fill="#B3E3CB"/>
<path d="M1145 502V477L1170 502H1145Z" fill="#B3E3CB"/>
<path d="M1170 502V477L1195 502H1170Z" fill="#B3E3CB"/>
<path d="M1195 502V477L1220 502H1195Z" fill="#B3E3CB"/>
<path d="M1220 502V477L1245 502H1220Z" fill="#B3E3CB"/>
<path d="M1245 502V477L1270 502H1245Z" fill="#B3E3CB"/>
<path d="M1270 502V477L1295 502H1270Z" fill="#B3E3CB"/>
<path d="M1295 502V477L1320 502H1295Z" fill="#B3E3CB"/>
<path d="M1120 477V452L1145 477H1120Z" fill="#B3E3CB"/>
<path d="M1145 477V452L1170 477H1145Z" fill="#B3E3CB"/>
<path d="M1170 477V452L1195 477H1170Z" fill="#B3E3CB"/>
<path d="M1195 477V452L1220 477H1195Z" fill="#B3E3CB"/>
<path d="M1220 477V452L1245 477H1220Z" fill="#B3E3CB"/>
<path d="M1245 477V452L1270 477H1245Z" fill="#B3E3CB"/>
<path d="M1270 477V452L1295 477H1270Z" fill="#B3E3CB"/>
<path d="M1295 477V452L1320 477H1295Z" fill="#B3E3CB"/>
<path d="M1120 452V427L1145 452H1120Z" fill="#B3E3CB"/>
<path d="M1145 452V427L1170 452H1145Z" fill="#B3E3CB"/>
<path d="M1170 452V427L1195 452H1170Z" fill="#B3E3CB"/>
<path d="M1195 452V427L1220 452H1195Z" fill="#B3E3CB"/>
<path d="M1220 452V427L1245 452H1220Z" fill="#B3E3CB"/>
<path d="M1245 452V427L1270 452H1245Z" fill="#B3E3CB"/>
<path d="M1270 452V427L1295 452H1270Z" fill="#B3E3CB"/>
<path d="M1295 452V427L1320 452H1295Z" fill="#B3E3CB"/>
<path d="M1120 427V402L1145 427H1120Z" fill="#B3E3CB"/>
<path d="M1145 427V402L1170 427H1145Z" fill="#B3E3CB"/>
<path d="M1170 427V402L1195 427H1170Z" fill="#B3E3CB"/>
<path d="M1195 427V402L1220 427H1195Z" fill="#B3E3CB"/>
<path d="M1220 427V402L1245 427H1220Z" fill="#B3E3CB"/>
<path d="M1245 427V402L1270 427H1245Z" fill="#B3E3CB"/>
<path d="M1270 427V402L1295 427H1270Z" fill="#B3E3CB"/>
<path d="M1295 427V402L1320 427H1295Z" fill="#B3E3CB"/>
<path d="M1120 402V377L1145 402H1120Z" fill="#B3E3CB"/>
<path d="M1145 402V377L1170 402H1145Z" fill="#B3E3CB"/>
<path d="M1170 402V377L1195 402H1170Z" fill="#B3E3CB"/>
<path d="M1195 402V377L1220 402H1195Z" fill="#B3E3CB"/>
<path d="M1220 402V377L1245 402H1220Z" fill="#B3E3CB"/>
<path d="M1245 402V377L1270 402H1245Z" fill="#B3E3CB"/>
<path d="M1270 402V377L1295 402H1270Z" fill="#B3E3CB"/>
<path d="M1295 402V377L1320 402H1295Z" fill="#B3E3CB"/>
<rect x="1320" y="577" width="200" height="200" transform="rotate(-90 1320 577)" fill="#E3F3EB"/>
</g>
</svg>
