<svg width="80" height="80" viewBox="0 0 80 80" fill="none" xmlns="http://www.w3.org/2000/svg">
<rect width="80" height="80" rx="4" fill="#E3FFF1"/>
<path d="M35.8333 39.9919C35.8333 40.9085 35.0833 41.6585 34.1666 41.6585C33.2499 41.6585 32.4999 40.9085 32.4999 39.9919C32.4999 39.0752 33.2499 38.3252 34.1666 38.3252C35.0833 38.3252 35.8333 39.0752 35.8333 39.9919ZM42.9166 36.6585C43.8333 36.6585 44.5833 35.9085 44.5833 34.9919C44.5833 34.0752 43.8333 33.3252 42.9166 33.3252C41.9999 33.3252 41.2499 34.0752 41.2499 34.9919C41.2499 35.9085 41.9999 36.6585 42.9166 36.6585ZM37.0833 36.6585C37.9999 36.6585 38.7499 35.9085 38.7499 34.9919C38.7499 34.0752 37.9999 33.3252 37.0833 33.3252C36.1666 33.3252 35.4166 34.0752 35.4166 34.9919C35.4166 35.9085 36.1666 36.6585 37.0833 36.6585ZM37.0833 43.3252C36.1666 43.3252 35.4166 44.0752 35.4166 44.9919C35.4166 45.9085 36.1666 46.6585 37.0833 46.6585C37.9999 46.6585 38.7499 45.9085 38.7499 44.9919C38.7499 44.0752 37.9999 43.3252 37.0833 43.3252ZM56.6666 38.7419V41.2419C56.6666 41.9252 56.0999 42.4919 55.4166 42.4919C54.7333 42.4919 54.1666 41.9252 54.1666 41.2419H51.5999C51.3499 43.5252 50.4499 45.6252 49.0666 47.3252L50.8833 49.1419L50.8999 49.1252C51.3833 48.6419 52.1833 48.6419 52.6666 49.1252C53.1499 49.6085 53.1499 50.4085 52.6666 50.8919L50.8999 52.6585C50.4166 53.1419 49.6166 53.1419 49.1333 52.6585C48.6499 52.1752 48.6499 51.3919 49.1166 50.9085L47.2999 49.0919C45.5999 50.4585 43.5166 51.3585 41.2333 51.6085V54.1752H41.2499C41.9333 54.1752 42.4999 54.7419 42.4999 55.4252C42.4999 56.1085 41.9333 56.6752 41.2499 56.6752H38.7499C38.0666 56.6752 37.4999 56.1085 37.4999 55.4252C37.4999 54.7419 38.0499 54.1919 38.7333 54.1752V51.5919C36.4499 51.3419 34.3666 50.4419 32.6833 49.0752L30.8666 50.8919L30.8833 50.9085C31.3666 51.3919 31.3666 52.1919 30.8833 52.6752C30.3999 53.1585 29.5999 53.1585 29.1166 52.6752L27.3333 50.8919C26.8499 50.4085 26.8499 49.6085 27.3333 49.1252C27.8166 48.6419 28.5999 48.6419 29.0833 49.1085L30.8999 47.2919C29.5333 45.5919 28.6333 43.5252 28.3999 41.2419H25.8333C25.8333 41.9252 25.2666 42.4919 24.5833 42.4919C23.8999 42.4919 23.3333 41.9252 23.3333 41.2419V38.7419C23.3333 38.0585 23.8999 37.4919 24.5833 37.4919C25.2666 37.4919 25.8333 38.0585 25.8333 38.7419H28.3999C28.6499 36.4585 29.5499 34.3919 30.8999 32.6919L29.0833 30.8752C28.5999 31.3419 27.8166 31.3419 27.3333 30.8585C26.8499 30.3752 26.8499 29.5752 27.3333 29.0919L29.0999 27.3252C29.5833 26.8419 30.3833 26.8419 30.8666 27.3252C31.3499 27.8085 31.3499 28.6085 30.8666 29.0919L30.8499 29.1085L32.6666 30.9252C34.3666 29.5585 36.4333 28.6585 38.7166 28.4085V25.8252C38.0333 25.8085 37.4833 25.2585 37.4833 24.5752C37.4999 23.8919 38.0666 23.3252 38.7499 23.3252H41.2499C41.9333 23.3252 42.4999 23.8919 42.4999 24.5752C42.4999 25.2585 41.9333 25.8252 41.2499 25.8252H41.2333V28.3919C43.5166 28.6252 45.5999 29.5419 47.2999 30.9085L49.1166 29.0919C48.6333 28.6085 48.6499 27.8252 49.1333 27.3419C49.6166 26.8585 50.4166 26.8585 50.8999 27.3419L52.6666 29.1085C53.1499 29.5919 53.1499 30.3919 52.6666 30.8752C52.1833 31.3585 51.3833 31.3585 50.8999 30.8752L50.8833 30.8585L49.0666 32.6585C50.4333 34.3585 51.3499 36.4419 51.5999 38.7419H54.1666C54.1666 38.0585 54.7333 37.4919 55.4166 37.4919C56.0999 37.4919 56.6666 38.0585 56.6666 38.7419ZM48.3333 39.9919C48.3333 35.3919 44.5999 31.6585 39.9999 31.6585C35.3999 31.6585 31.6666 35.3919 31.6666 39.9919C31.6666 44.5919 35.3999 48.3252 39.9999 48.3252C44.5999 48.3252 48.3333 44.5919 48.3333 39.9919ZM39.9999 38.3252C39.0833 38.3252 38.3333 39.0752 38.3333 39.9919C38.3333 40.9085 39.0833 41.6585 39.9999 41.6585C40.9166 41.6585 41.6666 40.9085 41.6666 39.9919C41.6666 39.0752 40.9166 38.3252 39.9999 38.3252ZM45.8333 38.3252C44.9166 38.3252 44.1666 39.0752 44.1666 39.9919C44.1666 40.9085 44.9166 41.6585 45.8333 41.6585C46.7499 41.6585 47.4999 40.9085 47.4999 39.9919C47.4999 39.0752 46.7499 38.3252 45.8333 38.3252ZM42.9166 43.3252C41.9999 43.3252 41.2499 44.0752 41.2499 44.9919C41.2499 45.9085 41.9999 46.6585 42.9166 46.6585C43.8333 46.6585 44.5833 45.9085 44.5833 44.9919C44.5833 44.0752 43.8333 43.3252 42.9166 43.3252Z" fill="#1C1C28"/>
</svg>
