<svg width="80" height="80" viewBox="0 0 80 80" fill="none" xmlns="http://www.w3.org/2000/svg">
<rect width="80" height="80" rx="4" fill="#E3FFF1"/>
<path d="M41.4501 41.7668C41.0667 41.1335 40.8334 40.3835 40.8334 39.5835C40.8334 37.2835 42.7001 35.4168 45.0001 35.4168H46.6667C49.1834 35.4168 50.0001 33.7502 50.0001 33.7502C50.0001 33.7502 50.9167 43.7502 45.0001 43.7502C44.1834 43.7502 43.4334 43.5168 42.8001 43.1168C42.4001 44.1835 41.8167 46.0502 41.5334 48.0502C43.6334 48.4168 45.3334 49.5335 46.1501 51.0002C48.9667 49.0502 50.8334 45.7835 50.8334 42.0835H55.8334C55.8334 50.8168 48.7334 57.9168 40.0001 57.9168C31.2667 57.9168 24.1667 50.8168 24.1667 42.0835C24.1667 33.3502 31.2667 26.2502 40.0001 26.2502V22.0835L46.6667 28.7502L40.0001 35.4168V31.2502C34.0334 31.2502 29.1667 36.1168 29.1667 42.0835C29.1667 45.7668 31.0167 49.0335 33.8501 51.0002C34.7001 49.4668 36.5667 48.3002 38.8167 48.0002C38.6667 46.8502 38.3834 45.6335 38.0001 44.6168C37.4167 45.1168 36.6667 45.4168 35.8334 45.4168C34.0001 45.4168 32.5001 43.9168 32.5001 42.0835V40.4335C32.5001 39.5002 32.1834 38.6168 31.6667 37.9168C31.6667 37.9168 39.0834 37.5335 39.1667 42.0835C39.1667 42.5668 39.0667 43.0168 38.8834 43.4168C38.1834 42.8835 37.4501 42.4168 36.6667 42.0835C37.6334 42.8002 38.9501 44.3668 40.0001 46.4168C41.1167 43.7168 42.8001 40.9668 45.0001 38.7502C43.7334 39.6168 42.5501 40.6168 41.4501 41.7668Z" fill="#1C1C28"/>
</svg>
