<svg width="80" height="80" viewBox="0 0 80 80" fill="none" xmlns="http://www.w3.org/2000/svg">
<rect width="80" height="80" rx="4" fill="#E3FFF1"/>
<path d="M56.5713 28.1335C56.2713 27.2502 55.4213 26.6668 54.4713 26.6668C54.4213 26.6668 54.3713 26.6668 54.3213 26.6668H52.6713L52.1547 25.0502C51.9213 24.0502 51.0213 23.3335 50.0047 23.3335C48.988 23.3335 48.088 24.0502 47.8547 25.0668L47.338 26.6668H45.7047C45.6547 26.6668 45.6047 26.6668 45.5547 26.6668C44.6047 26.6668 43.7547 27.2502 43.4547 28.1335C43.138 29.0668 43.5213 30.0835 44.388 30.6002L45.838 31.4668L45.1713 33.5335C44.788 34.5002 45.1047 35.6168 45.9213 36.2335C46.3047 36.5168 46.7713 36.6668 47.2213 36.6668C47.738 36.6668 48.238 36.4835 48.6547 36.1335L50.0047 34.9668L51.3547 36.1335C51.7713 36.4835 52.2713 36.6668 52.788 36.6668C53.238 36.6668 53.7047 36.5168 54.088 36.2335C54.9213 35.6168 55.2213 34.5002 54.838 33.5335L54.188 31.4668L55.638 30.6002C56.488 30.0835 56.8713 29.0668 56.5713 28.1335ZM50.0047 31.6668C49.088 31.6668 48.338 30.9168 48.338 30.0002C48.338 29.0835 49.088 28.3335 50.0047 28.3335C50.9213 28.3335 51.6713 29.0835 51.6713 30.0002C51.6713 30.9168 50.9213 31.6668 50.0047 31.6668Z" fill="#1C1C28"/>
<path d="M42.488 37.5168C41.7713 36.8002 40.9213 36.3002 40.0047 35.9668V33.3335H38.338V35.6335C38.1547 35.6168 37.9547 35.5835 37.7713 35.5835C36.0713 35.5835 34.3547 36.2335 33.0547 37.5335C32.8547 37.7335 32.5547 38.0335 32.2213 38.3668L30.0047 37.5335C27.4047 36.6168 24.538 37.9835 23.6213 40.5668C23.1713 41.8168 23.238 43.1835 23.8213 44.3835C24.2047 45.1835 24.788 45.8335 25.488 46.3168C24.8547 48.5668 25.388 51.0668 27.1547 52.8335C28.4547 54.1335 30.1547 54.7835 31.8713 54.7835C32.488 54.7835 33.088 54.6668 33.688 54.5002C34.1713 55.2002 34.8213 55.7835 35.6213 56.1668C36.3047 56.5002 37.0213 56.6668 37.7547 56.6668C38.3213 56.6668 38.888 56.5668 39.438 56.3835C42.038 55.4668 43.4047 52.6002 42.4713 49.9668L41.6547 47.8002C41.988 47.4668 42.288 47.1668 42.488 46.9668C43.938 45.5168 44.5547 43.5668 44.388 41.6835H46.6713V40.0168H44.0213C43.7047 39.1002 43.2047 38.2502 42.488 37.5168ZM32.638 51.3668C32.388 51.4335 32.138 51.4668 31.8713 51.4668C30.988 51.4668 30.138 51.1168 29.5213 50.4835C28.888 49.8502 28.538 49.0168 28.538 48.1335C28.538 47.8668 28.588 47.6002 28.638 47.3502C28.8713 47.3668 29.1047 47.4002 29.338 47.4002C30.7547 47.4002 32.138 47.0668 33.4047 46.6002C32.8713 48.0835 32.5047 49.7168 32.638 51.3668ZM27.788 43.8168C27.3713 43.6668 27.038 43.3668 26.838 42.9668C26.638 42.5668 26.6213 42.1168 26.7713 41.7002C27.088 40.8335 28.038 40.3835 28.8713 40.6835L34.138 42.6668C32.2213 43.6668 29.7547 44.5168 27.788 43.8168ZM38.3213 53.2335C37.9047 53.3835 37.4547 53.3668 37.0547 53.1668C36.6547 52.9835 36.3547 52.6335 36.2047 52.2168C35.5047 50.2502 36.3547 47.8002 37.3713 45.8835L39.338 51.1002C39.638 51.9668 39.188 52.9335 38.3213 53.2335ZM40.338 44.3335L39.3213 41.6502C39.3213 41.6335 39.3047 41.6168 39.288 41.6002C39.2547 41.5335 39.2213 41.4668 39.188 41.4002C39.1547 41.3335 39.1213 41.2835 39.0713 41.2168C39.0213 41.1668 38.9713 41.1168 38.9213 41.0668C38.8713 41.0168 38.8213 40.9668 38.7713 40.9168C38.7213 40.8668 38.6547 40.8335 38.588 40.8002C38.5213 40.7668 38.4713 40.7168 38.388 40.7002C38.3713 40.7002 38.3547 40.6835 38.338 40.6668L35.6713 39.6668C36.2713 39.1835 36.988 38.9002 37.7713 38.9002C38.6547 38.9002 39.5047 39.2502 40.1213 39.8835C41.338 41.1002 41.4047 43.0168 40.338 44.3335Z" fill="#1C1C28"/>
</svg>
