<svg width="80" height="80" viewBox="0 0 80 80" fill="none" xmlns="http://www.w3.org/2000/svg">
<rect width="80" height="80" rx="4" fill="#E3FFF1"/>
<path d="M36.1334 41.9833L40.0001 39.05L43.8501 41.9833L42.3834 37.2333L46.2501 34.1667H41.5167L40.0001 29.4833L38.4834 34.1667H33.7501L37.6001 37.2333L36.1334 41.9833ZM53.3334 35.8333C53.3334 28.4667 47.3667 22.5 40.0001 22.5C32.6334 22.5 26.6667 28.4667 26.6667 35.8333C26.6667 39.2167 27.9334 42.2833 30.0001 44.6333V57.5L40.0001 54.1667L50.0001 57.5V44.6333C52.0667 42.2833 53.3334 39.2167 53.3334 35.8333ZM40.0001 25.8333C45.5167 25.8333 50.0001 30.3167 50.0001 35.8333C50.0001 41.35 45.5167 45.8333 40.0001 45.8333C34.4834 45.8333 30.0001 41.35 30.0001 35.8333C30.0001 30.3167 34.4834 25.8333 40.0001 25.8333ZM40.0001 50.8333L33.3334 52.5333V47.3667C35.3001 48.5 37.5667 49.1667 40.0001 49.1667C42.4334 49.1667 44.7001 48.5 46.6667 47.3667V52.5333L40.0001 50.8333Z" fill="#1C1C28"/>
</svg>
