<svg width="80" height="80" viewBox="0 0 80 80" fill="none" xmlns="http://www.w3.org/2000/svg">
<rect width="80" height="80" rx="4" fill="#E3FFF1"/>
<path d="M52.5 25.8335L50 23.3335L47.5 25.8335L45 23.3335L42.5 25.8335L40 23.3335L37.5 25.8335L35 23.3335L32.5 25.8335L30 23.3335V46.6668H25V51.6668C25 54.4335 27.2333 56.6668 30 56.6668H50C52.7667 56.6668 55 54.4335 55 51.6668V23.3335L52.5 25.8335ZM45 53.3335H30C29.0833 53.3335 28.3333 52.5835 28.3333 51.6668V50.0002H45V53.3335ZM51.6667 51.6668C51.6667 52.5835 50.9167 53.3335 50 53.3335C49.0833 53.3335 48.3333 52.5835 48.3333 51.6668V46.6668H33.3333V28.3335H51.6667V51.6668Z" fill="#1C1C28"/>
<path d="M45 31.6668H35V35.0002H45V31.6668Z" fill="#1C1C28"/>
<path d="M50 31.6668H46.6667V35.0002H50V31.6668Z" fill="#1C1C28"/>
<path d="M45 36.6668H35V40.0002H45V36.6668Z" fill="#1C1C28"/>
<path d="M50 36.6668H46.6667V40.0002H50V36.6668Z" fill="#1C1C28"/>
</svg>
