<svg width="80" height="80" viewBox="0 0 80 80" fill="none" xmlns="http://www.w3.org/2000/svg">
<rect width="80" height="80" rx="4" fill="#E3FFF1"/>
<path d="M27.4999 39.1631C29.8011 39.1631 31.6666 37.2976 31.6666 34.9964C31.6666 32.6952 29.8011 30.8298 27.4999 30.8298C25.1987 30.8298 23.3333 32.6952 23.3333 34.9964C23.3333 37.2976 25.1987 39.1631 27.4999 39.1631Z" fill="#1C1C28"/>
<path d="M34.9999 32.4964C37.3011 32.4964 39.1666 30.6309 39.1666 28.3298C39.1666 26.0286 37.3011 24.1631 34.9999 24.1631C32.6987 24.1631 30.8333 26.0286 30.8333 28.3298C30.8333 30.6309 32.6987 32.4964 34.9999 32.4964Z" fill="#1C1C28"/>
<path d="M44.9999 32.4964C47.3011 32.4964 49.1666 30.6309 49.1666 28.3298C49.1666 26.0286 47.3011 24.1631 44.9999 24.1631C42.6987 24.1631 40.8333 26.0286 40.8333 28.3298C40.8333 30.6309 42.6987 32.4964 44.9999 32.4964Z" fill="#1C1C28"/>
<path d="M52.4999 39.1631C54.8011 39.1631 56.6666 37.2976 56.6666 34.9964C56.6666 32.6952 54.8011 30.8298 52.4999 30.8298C50.1987 30.8298 48.3333 32.6952 48.3333 34.9964C48.3333 37.2976 50.1987 39.1631 52.4999 39.1631Z" fill="#1C1C28"/>
<path d="M48.8999 43.9298C47.4499 42.2298 46.2333 40.7798 44.7666 39.0798C43.9999 38.1798 43.0166 37.2798 41.8499 36.8798C41.6666 36.8131 41.4833 36.7631 41.2999 36.7298C40.8833 36.6631 40.4333 36.6631 39.9999 36.6631C39.5666 36.6631 39.1166 36.6631 38.6833 36.7464C38.4999 36.7798 38.3166 36.8298 38.1333 36.8964C36.9666 37.2964 35.9999 38.1964 35.2166 39.0964C33.7666 40.7964 32.5499 42.2464 31.0833 43.9464C28.8999 46.1298 26.2166 48.5464 26.7166 51.9298C27.1999 53.6298 28.4166 55.3131 30.5999 55.7964C31.8166 56.0464 35.6999 55.0631 39.8333 55.0631H40.1333C44.2666 55.0631 48.1499 56.0298 49.3666 55.7964C51.5499 55.3131 52.7666 53.6131 53.2499 51.9298C53.7666 48.5298 51.0833 46.1131 48.8999 43.9298Z" fill="#1C1C28"/>
</svg>
