<svg width="80" height="80" viewBox="0 0 80 80" fill="none" xmlns="http://www.w3.org/2000/svg">
<rect width="80" height="80" rx="4" fill="#E3FFF1"/>
<path d="M56.6499 35.8334C56.6499 34.6334 56.0333 33.5834 55.0833 33.0001L39.9999 24.1667L24.9166 33.0001C23.9666 33.5834 23.3333 34.6334 23.3333 35.8334V52.5001C23.3333 54.3334 24.8333 55.8334 26.6666 55.8334H53.3333C55.1666 55.8334 56.6666 54.3334 56.6666 52.5001L56.6499 35.8334ZM53.3166 35.8334V35.8501L39.9999 44.1667L26.6666 35.8334L39.9999 28.0334L53.3166 35.8334ZM26.6666 52.5001V39.7334L39.9999 48.1001L53.3166 39.7834L53.3333 52.5001H26.6666Z" fill="#1C1C28"/>
</svg>
