<svg width="80" height="80" viewBox="0 0 80 80" fill="none" xmlns="http://www.w3.org/2000/svg">
<rect width="80" height="80" rx="4" fill="#E3FFF1"/>
<path d="M30.45 31.0833L34.55 24.2833C35.2 23.2 36.7667 23.2 37.4167 24.2833L39.8833 28.3833L37.8333 31.8167L36.1667 34.5167L30.45 31.0833ZM57.0333 40.7833L54.3667 36.35L48.6 39.6833L52.2833 45.8333H54.1667C55.4333 45.8333 56.5833 45.1167 57.15 43.9833C57.3833 43.5167 57.5 43.0167 57.5 42.5C57.5 41.9 57.3333 41.3167 57.0333 40.7833ZM47.5 54.1667H50C51.2667 54.1667 52.4167 53.45 52.9833 52.3167L55.4 47.5H47.5V44.1667L40.8333 50.8333L47.5 57.5V54.1667ZM37.5 47.5H30.3333L28.9333 49.85C28.4333 50.6833 28.4 51.7167 28.8333 52.6C29.3 53.55 30.2833 54.1667 31.3667 54.1667H37.5V47.5ZM31.0333 43.0833L33.9167 44.8167L31.6333 35.6667L22.5 37.95L25.3333 39.65L24.65 40.8C24.0667 41.7833 24.0167 42.9833 24.5333 44L27.25 49.4333L31.0333 43.0833ZM49.2 27.7333L47.0333 24.1167C46.4167 23.1167 45.3333 22.5 44.1667 22.5H38.2833L43.4833 31.1667L40.6167 32.8833L49.7667 35.1667L52.05 26.0167L49.2 27.7333Z" fill="#1C1C28"/>
</svg>
