<svg width="280" height="136" viewBox="0 0 280 136" fill="none" xmlns="http://www.w3.org/2000/svg">
<path fill-rule="evenodd" clip-rule="evenodd" d="M33.812 47.64C34.292 47.88 34.832 48 35.432 48C36.008 48 36.536 47.88 37.016 47.64C37.52 47.376 37.772 46.992 37.772 46.488V25.896H43.028C43.508 25.896 43.868 25.68 44.108 25.248C44.372 24.816 44.504 24.324 44.504 23.772C44.504 23.268 44.384 22.8 44.144 22.368C43.928 21.912 43.556 21.684 43.028 21.684H27.8C27.296 21.684 26.924 21.912 26.684 22.368C26.444 22.8 26.324 23.268 26.324 23.772C26.324 24.324 26.456 24.816 26.72 25.248C26.984 25.68 27.344 25.896 27.8 25.896H33.092V46.488C33.092 46.992 33.332 47.376 33.812 47.64ZM50.5795 47.424C51.8515 47.952 53.2795 48.216 54.8635 48.216C56.4475 48.216 57.8755 47.952 59.1475 47.424C60.4435 46.872 61.4635 45.996 62.2075 44.796C62.9515 43.572 63.3235 41.952 63.3235 39.936V29.964C63.3235 27.948 62.9515 26.34 62.2075 25.14C61.4635 23.916 60.4435 23.04 59.1475 22.512C57.8755 21.96 56.4475 21.684 54.8635 21.684C53.2555 21.684 51.8155 21.96 50.5435 22.512C49.2955 23.04 48.2875 23.916 47.5195 25.14C46.7755 26.34 46.4035 27.948 46.4035 29.964V39.936C46.4035 41.952 46.7755 43.572 47.5195 44.796C48.2875 45.996 49.3075 46.872 50.5795 47.424ZM57.6355 43.104C56.9635 43.776 56.0395 44.112 54.8635 44.112C53.6875 44.112 52.7635 43.776 52.0915 43.104C51.4435 42.432 51.1195 41.376 51.1195 39.936V29.964C51.1195 28.524 51.4435 27.468 52.0915 26.796C52.7635 26.124 53.6875 25.788 54.8635 25.788C56.0395 25.788 56.9635 26.124 57.6355 26.796C58.3075 27.468 58.6435 28.524 58.6435 29.964V39.936C58.6435 41.376 58.3075 42.432 57.6355 43.104ZM68.2634 47.64C68.7674 47.88 69.3074 48 69.8834 48C70.4834 48 71.0234 47.88 71.5034 47.64C71.9834 47.376 72.2234 46.992 72.2234 46.488V38.172H76.2554C77.8394 38.172 79.2674 37.908 80.5394 37.38C81.8354 36.828 82.8554 35.952 83.5994 34.752C84.3434 33.552 84.7154 31.968 84.7154 30V29.784C84.7154 27.816 84.3554 26.244 83.6354 25.068C82.9154 23.868 81.9314 23.004 80.6834 22.476C79.4594 21.948 78.0794 21.684 76.5434 21.684H69.3434C68.8154 21.684 68.3834 21.828 68.0474 22.116C67.7114 22.404 67.5434 22.752 67.5434 23.16V46.488C67.5434 46.992 67.7834 47.376 68.2634 47.64ZM76.2554 34.5H72.2234V25.788H76.2554C77.4554 25.788 78.3794 26.136 79.0274 26.832C79.6994 27.504 80.0354 28.548 80.0354 29.964V30.36C80.0354 31.752 79.6994 32.796 79.0274 33.492C78.3794 34.164 77.4554 34.5 76.2554 34.5ZM88.4825 47.64C88.9865 47.88 89.5265 48 90.1025 48C90.7025 48 91.2425 47.88 91.7225 47.64C92.2025 47.376 92.4425 47.004 92.4425 46.524V36.66H100.029C100.557 36.66 100.929 36.468 101.145 36.084C101.385 35.676 101.505 35.268 101.505 34.86C101.505 34.356 101.373 33.924 101.109 33.564C100.869 33.18 100.509 32.988 100.029 32.988H92.4425V25.788H102.378C102.858 25.788 103.218 25.584 103.458 25.176C103.722 24.768 103.854 24.276 103.854 23.7C103.854 23.22 103.734 22.764 103.494 22.332C103.278 21.9 102.906 21.684 102.378 21.684H89.8145C89.3105 21.684 88.8425 21.816 88.4105 22.08C87.9785 22.32 87.7625 22.692 87.7625 23.196V46.524C87.7625 47.004 88.0025 47.376 88.4825 47.64ZM106.979 47.64C107.483 47.88 108.023 48 108.599 48C109.199 48 109.739 47.88 110.219 47.64C110.699 47.376 110.939 46.992 110.939 46.488V23.16C110.939 22.632 110.699 22.26 110.219 22.044C109.739 21.804 109.199 21.684 108.599 21.684C108.023 21.684 107.483 21.804 106.979 22.044C106.499 22.26 106.259 22.632 106.259 23.16V46.488C106.259 46.992 106.499 47.376 106.979 47.64ZM116.194 47.64C116.698 47.88 117.238 48 117.814 48C118.414 48 118.954 47.88 119.434 47.64C119.914 47.376 120.154 46.992 120.154 46.488V32.052L127.93 46.524C128.218 47.076 128.59 47.46 129.046 47.676C129.526 47.892 130.042 48 130.594 48C131.194 48 131.734 47.88 132.214 47.64C132.694 47.376 132.934 46.992 132.934 46.488V23.16C132.934 22.632 132.694 22.26 132.214 22.044C131.734 21.804 131.194 21.684 130.594 21.684C130.018 21.684 129.478 21.804 128.974 22.044C128.494 22.26 128.254 22.632 128.254 23.16V37.596L121.306 24.168C120.946 23.448 120.598 22.92 120.262 22.584C119.95 22.224 119.602 21.984 119.218 21.864C118.858 21.744 118.39 21.684 117.814 21.684C117.238 21.684 116.698 21.804 116.194 22.044C115.714 22.284 115.474 22.656 115.474 23.16V46.488C115.474 46.992 115.714 47.376 116.194 47.64ZM75.135 68.937C75.317 69.049 75.499 69.105 75.681 69.105C75.961 69.105 76.227 69.035 76.479 68.895C76.745 68.755 76.962 68.573 77.13 68.349C77.298 68.125 77.382 67.901 77.382 67.677C77.382 67.635 77.375 67.586 77.361 67.53C77.347 67.46 77.326 67.397 77.298 67.341L74.526 62.238C75.058 62.07 75.527 61.818 75.933 61.482C76.353 61.132 76.682 60.677 76.92 60.117C77.158 59.543 77.277 58.85 77.277 58.038C77.277 56.918 77.053 56.043 76.605 55.413C76.157 54.769 75.555 54.314 74.799 54.048C74.057 53.782 73.224 53.649 72.3 53.649H68.142C67.876 53.649 67.659 53.733 67.491 53.901C67.337 54.069 67.26 54.272 67.26 54.51V68.118C67.26 68.412 67.4 68.636 67.68 68.79C67.974 68.93 68.289 69 68.625 69C68.975 69 69.29 68.93 69.57 68.79C69.85 68.636 69.99 68.412 69.99 68.118V62.658H71.754L74.736 68.454C74.834 68.664 74.967 68.825 75.135 68.937ZM72.3 60.516H69.99V56.043H72.3C72.986 56.043 73.532 56.211 73.938 56.547C74.344 56.869 74.547 57.45 74.547 58.29C74.547 59.102 74.344 59.676 73.938 60.012C73.532 60.348 72.986 60.516 72.3 60.516ZM79.7835 68.79C80.0355 68.93 80.3085 69 80.6025 69H88.0785C88.3865 69 88.6035 68.874 88.7295 68.622C88.8695 68.37 88.9395 68.104 88.9395 67.824C88.9395 67.488 88.8625 67.201 88.7085 66.963C88.5685 66.725 88.3585 66.606 88.0785 66.606H82.1355V62.385H87.0949C87.4029 62.385 87.6199 62.273 87.7459 62.049C87.8859 61.811 87.9559 61.573 87.9559 61.335C87.9559 61.041 87.8789 60.789 87.7249 60.579C87.5849 60.355 87.3749 60.243 87.0949 60.243H82.1355V56.043H88.0785C88.3585 56.043 88.5685 55.924 88.7085 55.686C88.8625 55.448 88.9395 55.161 88.9395 54.825C88.9395 54.545 88.8695 54.279 88.7295 54.027C88.6035 53.775 88.3865 53.649 88.0785 53.649H80.6025C80.3085 53.649 80.0355 53.726 79.7835 53.88C79.5315 54.02 79.4055 54.237 79.4055 54.531V68.118C79.4055 68.412 79.5315 68.636 79.7835 68.79ZM92.3683 68.79C93.1103 69.056 93.9363 69.189 94.8463 69.189C95.8123 69.189 96.6663 69.021 97.4083 68.685C98.1643 68.335 98.7593 67.824 99.1933 67.152C99.6273 66.466 99.8443 65.626 99.8443 64.632C99.8443 63.848 99.7253 63.19 99.4873 62.658C99.2493 62.112 98.9273 61.657 98.5213 61.293C98.1153 60.929 97.6673 60.621 97.1773 60.369C96.7013 60.103 96.2253 59.872 95.7493 59.676C95.2733 59.48 94.8323 59.284 94.4263 59.088C94.0343 58.892 93.7123 58.668 93.4603 58.416C93.2223 58.164 93.1033 57.856 93.1033 57.492C93.1033 57.142 93.1943 56.855 93.3763 56.631C93.5583 56.393 93.8313 56.211 94.1953 56.085C94.5593 55.959 94.9863 55.896 95.4763 55.896C96.0643 55.896 96.5263 55.966 96.8623 56.106C97.2123 56.232 97.4923 56.365 97.7023 56.505C97.9263 56.631 98.1503 56.694 98.3743 56.694C98.6263 56.694 98.8293 56.603 98.9833 56.421C99.1513 56.239 99.2703 56.036 99.3403 55.812C99.4243 55.588 99.4663 55.399 99.4663 55.245C99.4663 54.895 99.3193 54.615 99.0253 54.405C98.7453 54.181 98.3813 54.006 97.9333 53.88C97.4993 53.754 97.0583 53.67 96.6103 53.628C96.1763 53.572 95.7983 53.544 95.4763 53.544C94.8743 53.544 94.2723 53.621 93.6703 53.775C93.0683 53.915 92.5153 54.153 92.0113 54.489C91.5213 54.811 91.1223 55.238 90.8143 55.77C90.5203 56.302 90.3733 56.96 90.3733 57.744C90.3733 58.458 90.4923 59.06 90.7303 59.55C90.9823 60.04 91.3043 60.453 91.6963 60.789C92.1023 61.125 92.5433 61.412 93.0193 61.65C93.5093 61.888 93.9923 62.112 94.4683 62.322C94.9443 62.532 95.3853 62.749 95.7913 62.973C96.1973 63.197 96.5193 63.463 96.7573 63.771C96.9953 64.079 97.1143 64.457 97.1143 64.905C97.1143 65.325 97.0023 65.668 96.7783 65.934C96.5683 66.2 96.2813 66.403 95.9173 66.543C95.5673 66.669 95.1823 66.732 94.7623 66.732C94.2303 66.732 93.7823 66.655 93.4183 66.501C93.0543 66.333 92.7463 66.144 92.4943 65.934C92.2423 65.71 92.0183 65.521 91.8223 65.367C91.6263 65.199 91.4163 65.115 91.1923 65.115C90.9683 65.115 90.7653 65.199 90.5833 65.367C90.4013 65.521 90.2543 65.717 90.1423 65.955C90.0443 66.179 89.9953 66.389 89.9953 66.585C89.9953 66.991 90.2053 67.397 90.6253 67.803C91.0593 68.195 91.6403 68.524 92.3683 68.79ZM104.348 68.664C105.104 68.972 105.958 69.126 106.91 69.126C107.848 69.126 108.695 68.972 109.451 68.664C110.221 68.342 110.83 67.831 111.278 67.131C111.726 66.417 111.95 65.472 111.95 64.296V54.51C111.95 54.202 111.803 53.985 111.509 53.859C111.229 53.719 110.921 53.649 110.585 53.649C110.221 53.649 109.899 53.719 109.619 53.859C109.353 53.985 109.22 54.202 109.22 54.51V64.296C109.22 65.122 109.01 65.738 108.59 66.144C108.184 66.536 107.624 66.732 106.91 66.732C106.182 66.732 105.615 66.536 105.209 66.144C104.803 65.738 104.6 65.122 104.6 64.296V54.51C104.6 54.202 104.453 53.985 104.159 53.859C103.879 53.719 103.571 53.649 103.235 53.649C102.885 53.649 102.57 53.719 102.29 53.859C102.01 53.985 101.87 54.202 101.87 54.51V64.296C101.87 65.472 102.094 66.417 102.542 67.131C102.99 67.831 103.592 68.342 104.348 68.664ZM114.99 68.79C115.242 68.93 115.515 69 115.809 69H122.487C122.767 69 122.97 68.874 123.096 68.622C123.222 68.37 123.285 68.097 123.285 67.803C123.285 67.495 123.222 67.222 123.096 66.984C122.97 66.732 122.767 66.606 122.487 66.606H117.342V54.51C117.342 54.202 117.202 53.985 116.922 53.859C116.642 53.719 116.327 53.649 115.977 53.649C115.641 53.649 115.326 53.719 115.032 53.859C114.752 53.985 114.612 54.202 114.612 54.51V68.118C114.612 68.412 114.738 68.636 114.99 68.79ZM126.26 68.79C126.54 68.93 126.855 69 127.205 69C127.541 69 127.849 68.93 128.129 68.79C128.423 68.636 128.57 68.412 128.57 68.118V56.106H131.636C131.916 56.106 132.126 55.98 132.266 55.728C132.42 55.476 132.497 55.189 132.497 54.867C132.497 54.573 132.427 54.3 132.287 54.048C132.161 53.782 131.944 53.649 131.636 53.649H122.753C122.459 53.649 122.242 53.782 122.102 54.048C121.962 54.3 121.892 54.573 121.892 54.867C121.892 55.189 121.969 55.476 122.123 55.728C122.277 55.98 122.487 56.106 122.753 56.106H125.84V68.118C125.84 68.412 125.98 68.636 126.26 68.79Z" fill="#019F4B"/>
<path d="M145.596 77.077C145.665 76.9383 145.778 76.869 145.934 76.869H146.701C146.822 76.869 146.918 76.9123 146.987 76.999C147.065 77.077 147.104 77.1767 147.104 77.298V84.071C147.104 84.1923 147.065 84.2963 146.987 84.383C146.918 84.461 146.822 84.5 146.701 84.5H146.038C145.917 84.5 145.817 84.461 145.739 84.383C145.67 84.2963 145.635 84.1923 145.635 84.071V80.08H145.544L144.543 81.939C144.508 82.0083 144.469 82.0647 144.426 82.108C144.383 82.1513 144.326 82.173 144.257 82.173H144.01C143.941 82.173 143.889 82.1513 143.854 82.108C143.819 82.0647 143.78 82.0083 143.737 81.939L142.71 80.08H142.619V84.071C142.619 84.1923 142.58 84.2963 142.502 84.383C142.433 84.461 142.337 84.5 142.216 84.5H141.553C141.432 84.5 141.332 84.461 141.254 84.383C141.185 84.2963 141.15 84.1923 141.15 84.071V77.298C141.15 77.1767 141.185 77.077 141.254 76.999C141.332 76.9123 141.432 76.869 141.553 76.869H142.32C142.476 76.869 142.589 76.9383 142.658 77.077L144.075 79.729H144.166L145.596 77.077ZM151.227 81.172C151.201 80.6607 150.971 80.405 150.538 80.405C150.312 80.405 150.139 80.4657 150.018 80.587C149.905 80.6997 149.84 80.8947 149.823 81.172H151.227ZM152.618 83.239C152.531 83.681 152.31 84.0147 151.955 84.24C151.599 84.4653 151.127 84.578 150.538 84.578C150.122 84.578 149.771 84.5087 149.485 84.37C149.207 84.2313 148.982 84.0537 148.809 83.837C148.644 83.6203 148.527 83.3777 148.458 83.109C148.388 82.8403 148.354 82.576 148.354 82.316V81.419C148.354 81.159 148.388 80.8947 148.458 80.626C148.527 80.3573 148.644 80.1147 148.809 79.898C148.982 79.6813 149.207 79.5037 149.485 79.365C149.771 79.2263 150.122 79.157 150.538 79.157C151.205 79.157 151.725 79.313 152.098 79.625C152.47 79.937 152.657 80.3313 152.657 80.808V81.848C152.657 81.9693 152.618 82.0733 152.54 82.16C152.462 82.2467 152.362 82.29 152.241 82.29H149.823V82.589C149.823 82.823 149.879 83.018 149.992 83.174C150.113 83.3213 150.295 83.395 150.538 83.395C150.676 83.395 150.815 83.3777 150.954 83.343C151.101 83.3083 151.214 83.2173 151.292 83.07C151.326 82.992 151.365 82.9313 151.409 82.888C151.452 82.8447 151.547 82.823 151.695 82.823H152.202C152.332 82.823 152.431 82.862 152.501 82.94C152.579 83.018 152.618 83.1177 152.618 83.239ZM158.011 84.136C158.011 84.2573 157.972 84.3613 157.894 84.448C157.816 84.5347 157.716 84.578 157.595 84.578H157.387C157.317 84.578 157.252 84.5563 157.192 84.513C157.131 84.4783 157.079 84.435 157.036 84.383L156.646 83.954H156.542C156.542 83.98 156.524 84.0277 156.49 84.097C156.455 84.1663 156.399 84.2357 156.321 84.305C156.243 84.3743 156.13 84.4393 155.983 84.5C155.844 84.552 155.666 84.578 155.45 84.578C154.93 84.578 154.501 84.4437 154.163 84.175C153.825 83.8977 153.656 83.4643 153.656 82.875C153.656 82.823 153.664 82.7147 153.682 82.55C153.699 82.3767 153.76 82.1947 153.864 82.004C153.976 81.8133 154.145 81.6443 154.371 81.497C154.596 81.3497 154.917 81.276 155.333 81.276C155.549 81.276 155.727 81.302 155.866 81.354C156.004 81.3973 156.117 81.4537 156.204 81.523C156.29 81.5837 156.351 81.6487 156.386 81.718C156.42 81.7787 156.438 81.822 156.438 81.848H156.542V81.458C156.524 81.224 156.485 81.0377 156.425 80.899C156.364 80.7517 156.286 80.639 156.191 80.561C156.095 80.4743 155.991 80.418 155.879 80.392C155.775 80.366 155.671 80.353 155.567 80.353C155.523 80.353 155.454 80.3573 155.359 80.366C155.272 80.3747 155.177 80.3833 155.073 80.392C154.969 80.4007 154.869 80.4093 154.774 80.418C154.687 80.4267 154.618 80.431 154.566 80.431C154.488 80.431 154.414 80.4093 154.345 80.366C154.275 80.3227 154.232 80.2663 154.215 80.197L154.163 79.911C154.154 79.8677 154.145 79.8243 154.137 79.781C154.137 79.729 154.137 79.6813 154.137 79.638C154.137 79.4907 154.202 79.3737 154.332 79.287C154.384 79.261 154.479 79.2393 154.618 79.222C154.756 79.2047 154.904 79.1917 155.06 79.183C155.216 79.1743 155.367 79.17 155.515 79.17C155.671 79.1613 155.788 79.157 155.866 79.157C156.126 79.157 156.381 79.1917 156.633 79.261C156.893 79.3303 157.122 79.456 157.322 79.638C157.53 79.8113 157.694 80.0453 157.816 80.34C157.946 80.6347 158.011 81.0073 158.011 81.458V84.136ZM155.801 83.408C155.974 83.3993 156.126 83.356 156.256 83.278C156.394 83.2 156.464 83.083 156.464 82.927C156.464 82.7797 156.394 82.667 156.256 82.589C156.117 82.511 155.965 82.472 155.801 82.472C155.636 82.472 155.48 82.5023 155.333 82.563C155.194 82.6237 155.125 82.7537 155.125 82.953C155.125 82.9963 155.129 83.044 155.138 83.096C155.155 83.148 155.185 83.2 155.229 83.252C155.281 83.2953 155.35 83.3343 155.437 83.369C155.532 83.395 155.653 83.408 155.801 83.408ZM160.921 84.578C160.67 84.578 160.393 84.5477 160.089 84.487C159.795 84.4263 159.552 84.3223 159.361 84.175C159.309 84.1317 159.262 84.0797 159.218 84.019C159.184 83.9583 159.166 83.8933 159.166 83.824C159.166 83.7807 159.171 83.707 159.179 83.603C159.197 83.4903 159.227 83.3473 159.27 83.174C159.288 83.1133 159.322 83.057 159.374 83.005C159.426 82.953 159.487 82.927 159.556 82.927C159.6 82.927 159.665 82.9487 159.751 82.992C159.838 83.0353 159.942 83.083 160.063 83.135C160.185 83.187 160.319 83.2347 160.466 83.278C160.614 83.3213 160.765 83.343 160.921 83.343C161.164 83.343 161.35 83.3257 161.48 83.291C161.61 83.2477 161.675 83.148 161.675 82.992C161.675 82.862 161.61 82.7537 161.48 82.667C161.35 82.5803 161.19 82.5023 160.999 82.433C160.809 82.355 160.601 82.277 160.375 82.199C160.15 82.1123 159.942 82.004 159.751 81.874C159.561 81.744 159.4 81.5837 159.27 81.393C159.14 81.2023 159.075 80.964 159.075 80.678C159.075 80.4613 159.106 80.262 159.166 80.08C159.227 79.8893 159.335 79.7247 159.491 79.586C159.656 79.4473 159.873 79.3433 160.141 79.274C160.41 79.196 160.752 79.157 161.168 79.157C161.246 79.157 161.35 79.1613 161.48 79.17C161.61 79.17 161.745 79.1787 161.883 79.196C162.022 79.2133 162.156 79.248 162.286 79.3C162.425 79.3433 162.538 79.404 162.624 79.482C162.754 79.5687 162.819 79.6857 162.819 79.833C162.819 79.8763 162.811 79.9327 162.793 80.002C162.785 80.0713 162.759 80.1927 162.715 80.366C162.698 80.4267 162.663 80.483 162.611 80.535C162.559 80.587 162.499 80.613 162.429 80.613C162.291 80.613 162.104 80.5827 161.87 80.522C161.636 80.4613 161.402 80.431 161.168 80.431C160.926 80.431 160.761 80.444 160.674 80.47C160.588 80.4873 160.544 80.5567 160.544 80.678C160.544 80.7733 160.609 80.86 160.739 80.938C160.869 81.0073 161.03 81.081 161.22 81.159C161.411 81.2283 161.619 81.3107 161.844 81.406C162.07 81.4927 162.278 81.601 162.468 81.731C162.659 81.861 162.819 82.0213 162.949 82.212C163.079 82.394 163.144 82.6193 163.144 82.888C163.144 83.1393 163.105 83.369 163.027 83.577C162.958 83.785 162.832 83.9627 162.65 84.11C162.477 84.2573 162.247 84.3743 161.961 84.461C161.684 84.539 161.337 84.578 160.921 84.578ZM165.686 82.563C165.686 82.797 165.743 82.9963 165.855 83.161C165.977 83.3257 166.159 83.408 166.401 83.408C166.627 83.408 166.804 83.3257 166.934 83.161C167.064 82.9963 167.129 82.797 167.129 82.563V79.651C167.129 79.5297 167.168 79.43 167.246 79.352C167.324 79.274 167.424 79.235 167.545 79.235H168.182C168.304 79.235 168.403 79.274 168.481 79.352C168.559 79.43 168.598 79.5297 168.598 79.651V84.058C168.598 84.188 168.559 84.2963 168.481 84.383C168.403 84.461 168.304 84.5 168.182 84.5H168C167.827 84.5 167.701 84.4393 167.623 84.318L167.233 83.811H167.129C167.121 83.837 167.09 83.8933 167.038 83.98C166.986 84.0667 166.908 84.1533 166.804 84.24C166.7 84.3267 166.57 84.4047 166.414 84.474C166.267 84.5433 166.094 84.578 165.894 84.578C165.608 84.578 165.357 84.5217 165.14 84.409C164.932 84.2963 164.759 84.149 164.62 83.967C164.482 83.7763 164.378 83.564 164.308 83.33C164.239 83.0873 164.204 82.836 164.204 82.576V79.651C164.204 79.5297 164.243 79.43 164.321 79.352C164.408 79.274 164.512 79.235 164.633 79.235H165.283C165.396 79.235 165.491 79.274 165.569 79.352C165.647 79.43 165.686 79.5297 165.686 79.651V82.563ZM173.423 80.366C173.397 80.4353 173.349 80.4917 173.28 80.535C173.219 80.5783 173.15 80.6 173.072 80.6C173.02 80.6 172.968 80.5913 172.916 80.574C172.873 80.5567 172.825 80.535 172.773 80.509C172.678 80.4743 172.604 80.4527 172.552 80.444C172.509 80.4267 172.435 80.418 172.331 80.418C172.106 80.418 171.911 80.5307 171.746 80.756C171.59 80.9813 171.512 81.2977 171.512 81.705V84.084C171.512 84.2053 171.473 84.305 171.395 84.383C171.317 84.461 171.217 84.5 171.096 84.5H170.459C170.338 84.5 170.238 84.461 170.16 84.383C170.082 84.305 170.043 84.2053 170.043 84.084V79.677C170.043 79.547 170.082 79.443 170.16 79.365C170.238 79.2783 170.338 79.235 170.459 79.235H170.654C170.819 79.235 170.936 79.2957 171.005 79.417L171.408 79.95H171.512C171.521 79.924 171.538 79.8677 171.564 79.781C171.599 79.6943 171.659 79.6077 171.746 79.521C171.841 79.4257 171.971 79.3433 172.136 79.274C172.301 79.196 172.517 79.157 172.786 79.157C172.951 79.157 173.076 79.17 173.163 79.196C173.25 79.222 173.349 79.2653 173.462 79.326C173.592 79.4127 173.657 79.5297 173.657 79.677C173.657 79.7203 173.648 79.7637 173.631 79.807C173.622 79.8417 173.609 79.8807 173.592 79.924L173.423 80.366ZM177.136 81.172C177.11 80.6607 176.88 80.405 176.447 80.405C176.222 80.405 176.048 80.4657 175.927 80.587C175.814 80.6997 175.749 80.8947 175.732 81.172H177.136ZM178.527 83.239C178.44 83.681 178.219 84.0147 177.864 84.24C177.509 84.4653 177.036 84.578 176.447 84.578C176.031 84.578 175.68 84.5087 175.394 84.37C175.117 84.2313 174.891 84.0537 174.718 83.837C174.553 83.6203 174.436 83.3777 174.367 83.109C174.298 82.8403 174.263 82.576 174.263 82.316V81.419C174.263 81.159 174.298 80.8947 174.367 80.626C174.436 80.3573 174.553 80.1147 174.718 79.898C174.891 79.6813 175.117 79.5037 175.394 79.365C175.68 79.2263 176.031 79.157 176.447 79.157C177.114 79.157 177.634 79.313 178.007 79.625C178.38 79.937 178.566 80.3313 178.566 80.808V81.848C178.566 81.9693 178.527 82.0733 178.449 82.16C178.371 82.2467 178.271 82.29 178.15 82.29H175.732V82.589C175.732 82.823 175.788 83.018 175.901 83.174C176.022 83.3213 176.204 83.395 176.447 83.395C176.586 83.395 176.724 83.3777 176.863 83.343C177.01 83.3083 177.123 83.2173 177.201 83.07C177.236 82.992 177.275 82.9313 177.318 82.888C177.361 82.8447 177.457 82.823 177.604 82.823H178.111C178.241 82.823 178.341 82.862 178.41 82.94C178.488 83.018 178.527 83.1177 178.527 83.239ZM185.025 79.157C185.311 79.157 185.537 79.2133 185.701 79.326C185.875 79.4387 186.005 79.5903 186.091 79.781C186.178 79.9717 186.234 80.1883 186.26 80.431C186.286 80.665 186.299 80.912 186.299 81.172V84.084C186.299 84.2053 186.256 84.305 186.169 84.383C186.091 84.461 185.992 84.5 185.87 84.5H185.233C185.121 84.5 185.025 84.461 184.947 84.383C184.869 84.305 184.83 84.2053 184.83 84.084V81.276C184.83 81.042 184.791 80.8427 184.713 80.678C184.635 80.5133 184.497 80.431 184.297 80.431C184.15 80.431 184.033 80.4917 183.946 80.613C183.86 80.7257 183.808 80.8687 183.79 81.042V84.084C183.79 84.2053 183.747 84.305 183.66 84.383C183.582 84.461 183.483 84.5 183.361 84.5H182.724C182.612 84.5 182.516 84.461 182.438 84.383C182.36 84.305 182.321 84.2053 182.321 84.084V81.276C182.321 81.042 182.287 80.8427 182.217 80.678C182.148 80.5133 182.014 80.431 181.814 80.431C181.632 80.431 181.498 80.5133 181.411 80.678C181.333 80.8427 181.294 81.042 181.294 81.276V84.084C181.294 84.2053 181.255 84.305 181.177 84.383C181.099 84.461 181 84.5 180.878 84.5H180.241C180.12 84.5 180.02 84.461 179.942 84.383C179.864 84.305 179.825 84.2053 179.825 84.084V79.677C179.825 79.547 179.864 79.443 179.942 79.365C180.02 79.2783 180.12 79.235 180.241 79.235H180.423C180.597 79.235 180.722 79.2957 180.8 79.417L181.19 79.924H181.294C181.303 79.898 181.333 79.8417 181.385 79.755C181.437 79.6683 181.511 79.5817 181.606 79.495C181.71 79.4083 181.836 79.3303 181.983 79.261C182.131 79.1917 182.304 79.157 182.503 79.157C182.833 79.157 183.093 79.2307 183.283 79.378C183.474 79.5167 183.604 79.6987 183.673 79.924H183.777C183.786 79.898 183.816 79.8417 183.868 79.755C183.929 79.6683 184.011 79.5817 184.115 79.495C184.219 79.4083 184.345 79.3303 184.492 79.261C184.648 79.1917 184.826 79.157 185.025 79.157ZM190.359 81.172C190.333 80.6607 190.103 80.405 189.67 80.405C189.445 80.405 189.271 80.4657 189.15 80.587C189.037 80.6997 188.972 80.8947 188.955 81.172H190.359ZM191.75 83.239C191.663 83.681 191.442 84.0147 191.087 84.24C190.732 84.4653 190.259 84.578 189.67 84.578C189.254 84.578 188.903 84.5087 188.617 84.37C188.34 84.2313 188.114 84.0537 187.941 83.837C187.776 83.6203 187.659 83.3777 187.59 83.109C187.521 82.8403 187.486 82.576 187.486 82.316V81.419C187.486 81.159 187.521 80.8947 187.59 80.626C187.659 80.3573 187.776 80.1147 187.941 79.898C188.114 79.6813 188.34 79.5037 188.617 79.365C188.903 79.2263 189.254 79.157 189.67 79.157C190.337 79.157 190.857 79.313 191.23 79.625C191.603 79.937 191.789 80.3313 191.789 80.808V81.848C191.789 81.9693 191.75 82.0733 191.672 82.16C191.594 82.2467 191.494 82.29 191.373 82.29H188.955V82.589C188.955 82.823 189.011 83.018 189.124 83.174C189.245 83.3213 189.427 83.395 189.67 83.395C189.809 83.395 189.947 83.3777 190.086 83.343C190.233 83.3083 190.346 83.2173 190.424 83.07C190.459 82.992 190.498 82.9313 190.541 82.888C190.584 82.8447 190.68 82.823 190.827 82.823H191.334C191.464 82.823 191.564 82.862 191.633 82.94C191.711 83.018 191.75 83.1177 191.75 83.239ZM195.947 81.276C195.947 81.042 195.891 80.8427 195.778 80.678C195.666 80.5133 195.488 80.431 195.245 80.431C195.02 80.431 194.842 80.5133 194.712 80.678C194.582 80.8427 194.517 81.042 194.517 81.276V84.084C194.517 84.2053 194.478 84.305 194.4 84.383C194.322 84.461 194.223 84.5 194.101 84.5H193.464C193.343 84.5 193.243 84.461 193.165 84.383C193.087 84.305 193.048 84.2053 193.048 84.084V79.677C193.048 79.547 193.087 79.443 193.165 79.365C193.243 79.2783 193.343 79.235 193.464 79.235H193.646C193.82 79.235 193.945 79.2957 194.023 79.417L194.413 79.924H194.517C194.526 79.898 194.556 79.8417 194.608 79.755C194.66 79.6683 194.738 79.5817 194.842 79.495C194.946 79.4083 195.072 79.3303 195.219 79.261C195.375 79.1917 195.553 79.157 195.752 79.157C196.038 79.157 196.285 79.2133 196.493 79.326C196.71 79.4387 196.883 79.5903 197.013 79.781C197.152 79.963 197.252 80.1753 197.312 80.418C197.382 80.652 197.416 80.899 197.416 81.159V84.084C197.416 84.2053 197.373 84.305 197.286 84.383C197.208 84.461 197.109 84.5 196.987 84.5H196.35C196.238 84.5 196.142 84.461 196.064 84.383C195.986 84.305 195.947 84.2053 195.947 84.084V81.276ZM199.368 79.235V77.363C199.368 77.2417 199.407 77.142 199.485 77.064C199.563 76.986 199.663 76.947 199.784 76.947H200.421C200.543 76.947 200.642 76.986 200.72 77.064C200.798 77.142 200.837 77.2417 200.837 77.363V79.235H201.799C201.921 79.235 202.02 79.274 202.098 79.352C202.176 79.43 202.215 79.5297 202.215 79.651V80.015C202.215 80.1363 202.176 80.236 202.098 80.314C202.02 80.392 201.921 80.431 201.799 80.431H200.837V82.277C200.846 82.511 200.868 82.6973 200.902 82.836C200.937 82.9747 200.98 83.0787 201.032 83.148C201.084 83.2173 201.149 83.265 201.227 83.291C201.305 83.3083 201.396 83.317 201.5 83.317C201.544 83.317 201.57 83.317 201.578 83.317C201.596 83.317 201.609 83.317 201.617 83.317C201.626 83.3083 201.639 83.304 201.656 83.304C201.674 83.304 201.708 83.304 201.76 83.304C201.838 83.304 201.908 83.3257 201.968 83.369C202.038 83.4123 202.085 83.4687 202.111 83.538L202.228 83.863C202.246 83.9063 202.259 83.9497 202.267 83.993C202.285 84.0277 202.293 84.0667 202.293 84.11C202.293 84.2573 202.228 84.3743 202.098 84.461C201.986 84.5217 201.847 84.5563 201.682 84.565C201.526 84.5737 201.366 84.578 201.201 84.578C200.941 84.578 200.699 84.5433 200.473 84.474C200.257 84.4047 200.066 84.2833 199.901 84.11C199.737 83.928 199.607 83.6897 199.511 83.395C199.416 83.1003 199.368 82.7277 199.368 82.277V80.431H198.692C198.571 80.431 198.471 80.392 198.393 80.314C198.315 80.236 198.276 80.1363 198.276 80.015V79.651C198.276 79.5297 198.315 79.43 198.393 79.352C198.471 79.274 198.571 79.235 198.692 79.235H199.368ZM207.678 84.578C207.427 84.578 207.149 84.5477 206.846 84.487C206.551 84.4263 206.309 84.3223 206.118 84.175C206.066 84.1317 206.018 84.0797 205.975 84.019C205.94 83.9583 205.923 83.8933 205.923 83.824C205.923 83.7807 205.927 83.707 205.936 83.603C205.953 83.4903 205.984 83.3473 206.027 83.174C206.044 83.1133 206.079 83.057 206.131 83.005C206.183 82.953 206.244 82.927 206.313 82.927C206.356 82.927 206.421 82.9487 206.508 82.992C206.595 83.0353 206.699 83.083 206.82 83.135C206.941 83.187 207.076 83.2347 207.223 83.278C207.37 83.3213 207.522 83.343 207.678 83.343C207.921 83.343 208.107 83.3257 208.237 83.291C208.367 83.2477 208.432 83.148 208.432 82.992C208.432 82.862 208.367 82.7537 208.237 82.667C208.107 82.5803 207.947 82.5023 207.756 82.433C207.565 82.355 207.357 82.277 207.132 82.199C206.907 82.1123 206.699 82.004 206.508 81.874C206.317 81.744 206.157 81.5837 206.027 81.393C205.897 81.2023 205.832 80.964 205.832 80.678C205.832 80.4613 205.862 80.262 205.923 80.08C205.984 79.8893 206.092 79.7247 206.248 79.586C206.413 79.4473 206.629 79.3433 206.898 79.274C207.167 79.196 207.509 79.157 207.925 79.157C208.003 79.157 208.107 79.1613 208.237 79.17C208.367 79.17 208.501 79.1787 208.64 79.196C208.779 79.2133 208.913 79.248 209.043 79.3C209.182 79.3433 209.294 79.404 209.381 79.482C209.511 79.5687 209.576 79.6857 209.576 79.833C209.576 79.8763 209.567 79.9327 209.55 80.002C209.541 80.0713 209.515 80.1927 209.472 80.366C209.455 80.4267 209.42 80.483 209.368 80.535C209.316 80.587 209.255 80.613 209.186 80.613C209.047 80.613 208.861 80.5827 208.627 80.522C208.393 80.4613 208.159 80.431 207.925 80.431C207.682 80.431 207.518 80.444 207.431 80.47C207.344 80.4873 207.301 80.5567 207.301 80.678C207.301 80.7733 207.366 80.86 207.496 80.938C207.626 81.0073 207.786 81.081 207.977 81.159C208.168 81.2283 208.376 81.3107 208.601 81.406C208.826 81.4927 209.034 81.601 209.225 81.731C209.416 81.861 209.576 82.0213 209.706 82.212C209.836 82.394 209.901 82.6193 209.901 82.888C209.901 83.1393 209.862 83.369 209.784 83.577C209.715 83.785 209.589 83.9627 209.407 84.11C209.234 84.2573 209.004 84.3743 208.718 84.461C208.441 84.539 208.094 84.578 207.678 84.578ZM211.598 79.235V77.363C211.598 77.2417 211.637 77.142 211.715 77.064C211.793 76.986 211.893 76.947 212.014 76.947H212.651C212.772 76.947 212.872 76.986 212.95 77.064C213.028 77.142 213.067 77.2417 213.067 77.363V79.235H214.029C214.15 79.235 214.25 79.274 214.328 79.352C214.406 79.43 214.445 79.5297 214.445 79.651V80.015C214.445 80.1363 214.406 80.236 214.328 80.314C214.25 80.392 214.15 80.431 214.029 80.431H213.067V82.277C213.076 82.511 213.097 82.6973 213.132 82.836C213.167 82.9747 213.21 83.0787 213.262 83.148C213.314 83.2173 213.379 83.265 213.457 83.291C213.535 83.3083 213.626 83.317 213.73 83.317C213.773 83.317 213.799 83.317 213.808 83.317C213.825 83.317 213.838 83.317 213.847 83.317C213.856 83.3083 213.869 83.304 213.886 83.304C213.903 83.304 213.938 83.304 213.99 83.304C214.068 83.304 214.137 83.3257 214.198 83.369C214.267 83.4123 214.315 83.4687 214.341 83.538L214.458 83.863C214.475 83.9063 214.488 83.9497 214.497 83.993C214.514 84.0277 214.523 84.0667 214.523 84.11C214.523 84.2573 214.458 84.3743 214.328 84.461C214.215 84.5217 214.077 84.5563 213.912 84.565C213.756 84.5737 213.596 84.578 213.431 84.578C213.171 84.578 212.928 84.5433 212.703 84.474C212.486 84.4047 212.296 84.2833 212.131 84.11C211.966 83.928 211.836 83.6897 211.741 83.395C211.646 83.1003 211.598 82.7277 211.598 82.277V80.431H210.922C210.801 80.431 210.701 80.392 210.623 80.314C210.545 80.236 210.506 80.1363 210.506 80.015V79.651C210.506 79.5297 210.545 79.43 210.623 79.352C210.701 79.274 210.801 79.235 210.922 79.235H211.598ZM219.739 84.136C219.739 84.2573 219.7 84.3613 219.622 84.448C219.544 84.5347 219.445 84.578 219.323 84.578H219.115C219.046 84.578 218.981 84.5563 218.92 84.513C218.86 84.4783 218.808 84.435 218.764 84.383L218.374 83.954H218.27C218.27 83.98 218.253 84.0277 218.218 84.097C218.184 84.1663 218.127 84.2357 218.049 84.305C217.971 84.3743 217.859 84.4393 217.711 84.5C217.573 84.552 217.395 84.578 217.178 84.578C216.658 84.578 216.229 84.4437 215.891 84.175C215.553 83.8977 215.384 83.4643 215.384 82.875C215.384 82.823 215.393 82.7147 215.41 82.55C215.428 82.3767 215.488 82.1947 215.592 82.004C215.705 81.8133 215.874 81.6443 216.099 81.497C216.325 81.3497 216.645 81.276 217.061 81.276C217.278 81.276 217.456 81.302 217.594 81.354C217.733 81.3973 217.846 81.4537 217.932 81.523C218.019 81.5837 218.08 81.6487 218.114 81.718C218.149 81.7787 218.166 81.822 218.166 81.848H218.27V81.458C218.253 81.224 218.214 81.0377 218.153 80.899C218.093 80.7517 218.015 80.639 217.919 80.561C217.824 80.4743 217.72 80.418 217.607 80.392C217.503 80.366 217.399 80.353 217.295 80.353C217.252 80.353 217.183 80.3573 217.087 80.366C217.001 80.3747 216.905 80.3833 216.801 80.392C216.697 80.4007 216.598 80.4093 216.502 80.418C216.416 80.4267 216.346 80.431 216.294 80.431C216.216 80.431 216.143 80.4093 216.073 80.366C216.004 80.3227 215.961 80.2663 215.943 80.197L215.891 79.911C215.883 79.8677 215.874 79.8243 215.865 79.781C215.865 79.729 215.865 79.6813 215.865 79.638C215.865 79.4907 215.93 79.3737 216.06 79.287C216.112 79.261 216.208 79.2393 216.346 79.222C216.485 79.2047 216.632 79.1917 216.788 79.183C216.944 79.1743 217.096 79.17 217.243 79.17C217.399 79.1613 217.516 79.157 217.594 79.157C217.854 79.157 218.11 79.1917 218.361 79.261C218.621 79.3303 218.851 79.456 219.05 79.638C219.258 79.8113 219.423 80.0453 219.544 80.34C219.674 80.6347 219.739 81.0073 219.739 81.458V84.136ZM217.529 83.408C217.703 83.3993 217.854 83.356 217.984 83.278C218.123 83.2 218.192 83.083 218.192 82.927C218.192 82.7797 218.123 82.667 217.984 82.589C217.846 82.511 217.694 82.472 217.529 82.472C217.365 82.472 217.209 82.5023 217.061 82.563C216.923 82.6237 216.853 82.7537 216.853 82.953C216.853 82.9963 216.858 83.044 216.866 83.096C216.884 83.148 216.914 83.2 216.957 83.252C217.009 83.2953 217.079 83.3343 217.165 83.369C217.261 83.395 217.382 83.408 217.529 83.408ZM224.025 81.276C224.025 81.042 223.969 80.8427 223.856 80.678C223.743 80.5133 223.566 80.431 223.323 80.431C223.098 80.431 222.92 80.5133 222.79 80.678C222.66 80.8427 222.595 81.042 222.595 81.276V84.084C222.595 84.2053 222.556 84.305 222.478 84.383C222.4 84.461 222.3 84.5 222.179 84.5H221.542C221.421 84.5 221.321 84.461 221.243 84.383C221.165 84.305 221.126 84.2053 221.126 84.084V79.677C221.126 79.547 221.165 79.443 221.243 79.365C221.321 79.2783 221.421 79.235 221.542 79.235H221.724C221.897 79.235 222.023 79.2957 222.101 79.417L222.491 79.924H222.595C222.604 79.898 222.634 79.8417 222.686 79.755C222.738 79.6683 222.816 79.5817 222.92 79.495C223.024 79.4083 223.15 79.3303 223.297 79.261C223.453 79.1917 223.631 79.157 223.83 79.157C224.116 79.157 224.363 79.2133 224.571 79.326C224.788 79.4387 224.961 79.5903 225.091 79.781C225.23 79.963 225.329 80.1753 225.39 80.418C225.459 80.652 225.494 80.899 225.494 81.159V84.084C225.494 84.2053 225.451 84.305 225.364 84.383C225.286 84.461 225.186 84.5 225.065 84.5H224.428C224.315 84.5 224.22 84.461 224.142 84.383C224.064 84.305 224.025 84.2053 224.025 84.084V81.276ZM230.709 76.869C230.83 76.869 230.926 76.908 230.995 76.986C231.073 77.064 231.112 77.1637 231.112 77.285V84.149C231.112 84.2703 231.073 84.3743 230.995 84.461C230.926 84.539 230.83 84.578 230.709 84.578H230.501C230.336 84.578 230.215 84.5173 230.137 84.396L229.734 83.837H229.643C229.643 83.863 229.626 83.9193 229.591 84.006C229.565 84.084 229.509 84.1663 229.422 84.253C229.344 84.331 229.223 84.4047 229.058 84.474C228.902 84.5433 228.69 84.578 228.421 84.578C228.126 84.578 227.871 84.526 227.654 84.422C227.446 84.3093 227.273 84.162 227.134 83.98C227.004 83.7893 226.904 83.577 226.835 83.343C226.774 83.1003 226.744 82.849 226.744 82.589V81.159C226.744 80.899 226.774 80.652 226.835 80.418C226.896 80.1753 226.987 79.963 227.108 79.781C227.229 79.5903 227.385 79.4387 227.576 79.326C227.775 79.2133 228.009 79.157 228.278 79.157C228.495 79.157 228.716 79.2047 228.941 79.3C229.166 79.3867 229.366 79.5903 229.539 79.911H229.643V77.285C229.643 77.1637 229.682 77.064 229.76 76.986C229.838 76.908 229.938 76.869 230.059 76.869H230.709ZM229.643 81.289C229.643 81.0463 229.578 80.8427 229.448 80.678C229.327 80.5133 229.149 80.431 228.915 80.431C228.672 80.431 228.495 80.5133 228.382 80.678C228.269 80.8427 228.213 81.0463 228.213 81.289V82.55C228.213 82.7927 228.269 82.9963 228.382 83.161C228.495 83.3257 228.672 83.408 228.915 83.408C229.149 83.408 229.327 83.3257 229.448 83.161C229.578 82.9963 229.643 82.7927 229.643 82.55V81.289ZM236.654 84.136C236.654 84.2573 236.615 84.3613 236.537 84.448C236.459 84.5347 236.359 84.578 236.238 84.578H236.03C235.96 84.578 235.895 84.5563 235.835 84.513C235.774 84.4783 235.722 84.435 235.679 84.383L235.289 83.954H235.185C235.185 83.98 235.167 84.0277 235.133 84.097C235.098 84.1663 235.042 84.2357 234.964 84.305C234.886 84.3743 234.773 84.4393 234.626 84.5C234.487 84.552 234.309 84.578 234.093 84.578C233.573 84.578 233.144 84.4437 232.806 84.175C232.468 83.8977 232.299 83.4643 232.299 82.875C232.299 82.823 232.307 82.7147 232.325 82.55C232.342 82.3767 232.403 82.1947 232.507 82.004C232.619 81.8133 232.788 81.6443 233.014 81.497C233.239 81.3497 233.56 81.276 233.976 81.276C234.192 81.276 234.37 81.302 234.509 81.354C234.647 81.3973 234.76 81.4537 234.847 81.523C234.933 81.5837 234.994 81.6487 235.029 81.718C235.063 81.7787 235.081 81.822 235.081 81.848H235.185V81.458C235.167 81.224 235.128 81.0377 235.068 80.899C235.007 80.7517 234.929 80.639 234.834 80.561C234.738 80.4743 234.634 80.418 234.522 80.392C234.418 80.366 234.314 80.353 234.21 80.353C234.166 80.353 234.097 80.3573 234.002 80.366C233.915 80.3747 233.82 80.3833 233.716 80.392C233.612 80.4007 233.512 80.4093 233.417 80.418C233.33 80.4267 233.261 80.431 233.209 80.431C233.131 80.431 233.057 80.4093 232.988 80.366C232.918 80.3227 232.875 80.2663 232.858 80.197L232.806 79.911C232.797 79.8677 232.788 79.8243 232.78 79.781C232.78 79.729 232.78 79.6813 232.78 79.638C232.78 79.4907 232.845 79.3737 232.975 79.287C233.027 79.261 233.122 79.2393 233.261 79.222C233.399 79.2047 233.547 79.1917 233.703 79.183C233.859 79.1743 234.01 79.17 234.158 79.17C234.314 79.1613 234.431 79.157 234.509 79.157C234.769 79.157 235.024 79.1917 235.276 79.261C235.536 79.3303 235.765 79.456 235.965 79.638C236.173 79.8113 236.337 80.0453 236.459 80.34C236.589 80.6347 236.654 81.0073 236.654 81.458V84.136ZM234.444 83.408C234.617 83.3993 234.769 83.356 234.899 83.278C235.037 83.2 235.107 83.083 235.107 82.927C235.107 82.7797 235.037 82.667 234.899 82.589C234.76 82.511 234.608 82.472 234.444 82.472C234.279 82.472 234.123 82.5023 233.976 82.563C233.837 82.6237 233.768 82.7537 233.768 82.953C233.768 82.9963 233.772 83.044 233.781 83.096C233.798 83.148 233.828 83.2 233.872 83.252C233.924 83.2953 233.993 83.3343 234.08 83.369C234.175 83.395 234.296 83.408 234.444 83.408ZM241.42 80.366C241.394 80.4353 241.347 80.4917 241.277 80.535C241.217 80.5783 241.147 80.6 241.069 80.6C241.017 80.6 240.965 80.5913 240.913 80.574C240.87 80.5567 240.822 80.535 240.77 80.509C240.675 80.4743 240.601 80.4527 240.549 80.444C240.506 80.4267 240.432 80.418 240.328 80.418C240.103 80.418 239.908 80.5307 239.743 80.756C239.587 80.9813 239.509 81.2977 239.509 81.705V84.084C239.509 84.2053 239.47 84.305 239.392 84.383C239.314 84.461 239.215 84.5 239.093 84.5H238.456C238.335 84.5 238.235 84.461 238.157 84.383C238.079 84.305 238.04 84.2053 238.04 84.084V79.677C238.04 79.547 238.079 79.443 238.157 79.365C238.235 79.2783 238.335 79.235 238.456 79.235H238.651C238.816 79.235 238.933 79.2957 239.002 79.417L239.405 79.95H239.509C239.518 79.924 239.535 79.8677 239.561 79.781C239.596 79.6943 239.657 79.6077 239.743 79.521C239.839 79.4257 239.969 79.3433 240.133 79.274C240.298 79.196 240.515 79.157 240.783 79.157C240.948 79.157 241.074 79.17 241.16 79.196C241.247 79.222 241.347 79.2653 241.459 79.326C241.589 79.4127 241.654 79.5297 241.654 79.677C241.654 79.7203 241.646 79.7637 241.628 79.807C241.62 79.8417 241.607 79.8807 241.589 79.924L241.42 80.366ZM243.218 79.235V77.363C243.218 77.2417 243.257 77.142 243.335 77.064C243.413 76.986 243.512 76.947 243.634 76.947H244.271C244.392 76.947 244.492 76.986 244.57 77.064C244.648 77.142 244.687 77.2417 244.687 77.363V79.235H245.649C245.77 79.235 245.87 79.274 245.948 79.352C246.026 79.43 246.065 79.5297 246.065 79.651V80.015C246.065 80.1363 246.026 80.236 245.948 80.314C245.87 80.392 245.77 80.431 245.649 80.431H244.687V82.277C244.695 82.511 244.717 82.6973 244.752 82.836C244.786 82.9747 244.83 83.0787 244.882 83.148C244.934 83.2173 244.999 83.265 245.077 83.291C245.155 83.3083 245.246 83.317 245.35 83.317C245.393 83.317 245.419 83.317 245.428 83.317C245.445 83.317 245.458 83.317 245.467 83.317C245.475 83.3083 245.488 83.304 245.506 83.304C245.523 83.304 245.558 83.304 245.61 83.304C245.688 83.304 245.757 83.3257 245.818 83.369C245.887 83.4123 245.935 83.4687 245.961 83.538L246.078 83.863C246.095 83.9063 246.108 83.9497 246.117 83.993C246.134 84.0277 246.143 84.0667 246.143 84.11C246.143 84.2573 246.078 84.3743 245.948 84.461C245.835 84.5217 245.696 84.5563 245.532 84.565C245.376 84.5737 245.215 84.578 245.051 84.578C244.791 84.578 244.548 84.5433 244.323 84.474C244.106 84.4047 243.915 84.2833 243.751 84.11C243.586 83.928 243.456 83.6897 243.361 83.395C243.265 83.1003 243.218 82.7277 243.218 82.277V80.431H242.542C242.42 80.431 242.321 80.392 242.243 80.314C242.165 80.236 242.126 80.1363 242.126 80.015V79.651C242.126 79.5297 242.165 79.43 242.243 79.352C242.321 79.274 242.42 79.235 242.542 79.235H243.218ZM248.915 84.578C248.664 84.578 248.386 84.5477 248.083 84.487C247.788 84.4263 247.546 84.3223 247.355 84.175C247.303 84.1317 247.255 84.0797 247.212 84.019C247.177 83.9583 247.16 83.8933 247.16 83.824C247.16 83.7807 247.164 83.707 247.173 83.603C247.19 83.4903 247.221 83.3473 247.264 83.174C247.281 83.1133 247.316 83.057 247.368 83.005C247.42 82.953 247.481 82.927 247.55 82.927C247.593 82.927 247.658 82.9487 247.745 82.992C247.832 83.0353 247.936 83.083 248.057 83.135C248.178 83.187 248.313 83.2347 248.46 83.278C248.607 83.3213 248.759 83.343 248.915 83.343C249.158 83.343 249.344 83.3257 249.474 83.291C249.604 83.2477 249.669 83.148 249.669 82.992C249.669 82.862 249.604 82.7537 249.474 82.667C249.344 82.5803 249.184 82.5023 248.993 82.433C248.802 82.355 248.594 82.277 248.369 82.199C248.144 82.1123 247.936 82.004 247.745 81.874C247.554 81.744 247.394 81.5837 247.264 81.393C247.134 81.2023 247.069 80.964 247.069 80.678C247.069 80.4613 247.099 80.262 247.16 80.08C247.221 79.8893 247.329 79.7247 247.485 79.586C247.65 79.4473 247.866 79.3433 248.135 79.274C248.404 79.196 248.746 79.157 249.162 79.157C249.24 79.157 249.344 79.1613 249.474 79.17C249.604 79.17 249.738 79.1787 249.877 79.196C250.016 79.2133 250.15 79.248 250.28 79.3C250.419 79.3433 250.531 79.404 250.618 79.482C250.748 79.5687 250.813 79.6857 250.813 79.833C250.813 79.8763 250.804 79.9327 250.787 80.002C250.778 80.0713 250.752 80.1927 250.709 80.366C250.692 80.4267 250.657 80.483 250.605 80.535C250.553 80.587 250.492 80.613 250.423 80.613C250.284 80.613 250.098 80.5827 249.864 80.522C249.63 80.4613 249.396 80.431 249.162 80.431C248.919 80.431 248.755 80.444 248.668 80.47C248.581 80.4873 248.538 80.5567 248.538 80.678C248.538 80.7733 248.603 80.86 248.733 80.938C248.863 81.0073 249.023 81.081 249.214 81.159C249.405 81.2283 249.613 81.3107 249.838 81.406C250.063 81.4927 250.271 81.601 250.462 81.731C250.653 81.861 250.813 82.0213 250.943 82.212C251.073 82.394 251.138 82.6193 251.138 82.888C251.138 83.1393 251.099 83.369 251.021 83.577C250.952 83.785 250.826 83.9627 250.644 84.11C250.471 84.2573 250.241 84.3743 249.955 84.461C249.678 84.539 249.331 84.578 248.915 84.578ZM141.15 92.298C141.15 92.1767 141.185 92.077 141.254 91.999C141.332 91.9123 141.432 91.869 141.553 91.869H142.216C142.337 91.869 142.433 91.9123 142.502 91.999C142.58 92.077 142.619 92.1767 142.619 92.298V99.071C142.619 99.1923 142.58 99.2963 142.502 99.383C142.433 99.461 142.337 99.5 142.216 99.5H141.553C141.432 99.5 141.332 99.461 141.254 99.383C141.185 99.2963 141.15 99.1923 141.15 99.071V92.298ZM148.162 99.136C148.162 99.2573 148.123 99.3613 148.045 99.448C147.967 99.5347 147.867 99.578 147.746 99.578H147.538C147.469 99.578 147.404 99.5563 147.343 99.513C147.282 99.4783 147.23 99.435 147.187 99.383L146.797 98.954H146.693C146.693 98.98 146.676 99.0277 146.641 99.097C146.606 99.1663 146.55 99.2357 146.472 99.305C146.394 99.3743 146.281 99.4393 146.134 99.5C145.995 99.552 145.818 99.578 145.601 99.578C145.081 99.578 144.652 99.4437 144.314 99.175C143.976 98.8977 143.807 98.4643 143.807 97.875C143.807 97.823 143.816 97.7147 143.833 97.55C143.85 97.3767 143.911 97.1947 144.015 97.004C144.128 96.8133 144.297 96.6443 144.522 96.497C144.747 96.3497 145.068 96.276 145.484 96.276C145.701 96.276 145.878 96.302 146.017 96.354C146.156 96.3973 146.268 96.4537 146.355 96.523C146.442 96.5837 146.502 96.6487 146.537 96.718C146.572 96.7787 146.589 96.822 146.589 96.848H146.693V96.458C146.676 96.224 146.637 96.0377 146.576 95.899C146.515 95.7517 146.437 95.639 146.342 95.561C146.247 95.4743 146.143 95.418 146.03 95.392C145.926 95.366 145.822 95.353 145.718 95.353C145.675 95.353 145.605 95.3573 145.51 95.366C145.423 95.3747 145.328 95.3833 145.224 95.392C145.12 95.4007 145.02 95.4093 144.925 95.418C144.838 95.4267 144.769 95.431 144.717 95.431C144.639 95.431 144.565 95.4093 144.496 95.366C144.427 95.3227 144.383 95.2663 144.366 95.197L144.314 94.911C144.305 94.8677 144.297 94.8243 144.288 94.781C144.288 94.729 144.288 94.6813 144.288 94.638C144.288 94.4907 144.353 94.3737 144.483 94.287C144.535 94.261 144.63 94.2393 144.769 94.222C144.908 94.2047 145.055 94.1917 145.211 94.183C145.367 94.1743 145.519 94.17 145.666 94.17C145.822 94.1613 145.939 94.157 146.017 94.157C146.277 94.157 146.533 94.1917 146.784 94.261C147.044 94.3303 147.274 94.456 147.473 94.638C147.681 94.8113 147.846 95.0453 147.967 95.34C148.097 95.6347 148.162 96.0073 148.162 96.458V99.136ZM145.952 98.408C146.125 98.3993 146.277 98.356 146.407 98.278C146.546 98.2 146.615 98.083 146.615 97.927C146.615 97.7797 146.546 97.667 146.407 97.589C146.268 97.511 146.117 97.472 145.952 97.472C145.787 97.472 145.631 97.5023 145.484 97.563C145.345 97.6237 145.276 97.7537 145.276 97.953C145.276 97.9963 145.28 98.044 145.289 98.096C145.306 98.148 145.337 98.2 145.38 98.252C145.432 98.2953 145.501 98.3343 145.588 98.369C145.683 98.395 145.805 98.408 145.952 98.408ZM150.602 91.869C150.723 91.869 150.823 91.908 150.901 91.986C150.979 92.064 151.018 92.1637 151.018 92.285V94.911H151.122C151.295 94.5903 151.494 94.3867 151.72 94.3C151.945 94.2047 152.166 94.157 152.383 94.157C152.651 94.157 152.881 94.2133 153.072 94.326C153.271 94.4387 153.431 94.5903 153.553 94.781C153.674 94.963 153.765 95.1753 153.826 95.418C153.886 95.652 153.917 95.899 153.917 96.159V97.589C153.917 97.849 153.882 98.1003 153.813 98.343C153.752 98.577 153.652 98.7893 153.514 98.98C153.375 99.162 153.202 99.3093 152.994 99.422C152.786 99.526 152.534 99.578 152.24 99.578C151.971 99.578 151.754 99.5433 151.59 99.474C151.434 99.4047 151.312 99.331 151.226 99.253C151.148 99.1663 151.091 99.084 151.057 99.006C151.031 98.9193 151.018 98.863 151.018 98.837H150.927L150.524 99.396C150.446 99.5173 150.324 99.578 150.16 99.578H149.952C149.83 99.578 149.731 99.539 149.653 99.461C149.583 99.3743 149.549 99.2703 149.549 99.149V92.285C149.549 92.1637 149.583 92.064 149.653 91.986C149.731 91.908 149.83 91.869 149.952 91.869H150.602ZM151.018 97.55C151.018 97.7927 151.078 97.9963 151.2 98.161C151.33 98.3257 151.512 98.408 151.746 98.408C151.988 98.408 152.166 98.3257 152.279 98.161C152.391 97.9963 152.448 97.7927 152.448 97.55V96.289C152.448 96.0463 152.391 95.8427 152.279 95.678C152.166 95.5133 151.988 95.431 151.746 95.431C151.512 95.431 151.33 95.5133 151.2 95.678C151.078 95.8427 151.018 96.0463 151.018 96.289V97.55ZM157.196 98.33C157.448 98.33 157.625 98.2563 157.729 98.109C157.842 97.9617 157.898 97.771 157.898 97.537V96.224C157.898 95.99 157.842 95.7993 157.729 95.652C157.625 95.5047 157.448 95.431 157.196 95.431C156.962 95.431 156.789 95.5047 156.676 95.652C156.564 95.7993 156.507 95.99 156.507 96.224V97.537C156.507 97.771 156.564 97.9617 156.676 98.109C156.789 98.2563 156.962 98.33 157.196 98.33ZM157.196 99.578C156.789 99.578 156.447 99.5087 156.169 99.37C155.901 99.2313 155.68 99.058 155.506 98.85C155.342 98.6333 155.22 98.395 155.142 98.135C155.073 97.8663 155.038 97.602 155.038 97.342V96.406C155.038 96.146 155.073 95.8817 155.142 95.613C155.22 95.3443 155.342 95.106 155.506 94.898C155.68 94.6813 155.901 94.5037 156.169 94.365C156.447 94.2263 156.789 94.157 157.196 94.157C157.612 94.157 157.959 94.2263 158.236 94.365C158.514 94.5037 158.735 94.6813 158.899 94.898C159.073 95.106 159.194 95.3443 159.263 95.613C159.333 95.8817 159.367 96.146 159.367 96.406V97.342C159.367 97.602 159.333 97.8663 159.263 98.135C159.194 98.395 159.073 98.6333 158.899 98.85C158.735 99.058 158.514 99.2313 158.236 99.37C157.959 99.5087 157.612 99.578 157.196 99.578ZM164.006 95.366C163.98 95.4353 163.932 95.4917 163.863 95.535C163.802 95.5783 163.733 95.6 163.655 95.6C163.603 95.6 163.551 95.5913 163.499 95.574C163.456 95.5567 163.408 95.535 163.356 95.509C163.261 95.4743 163.187 95.4527 163.135 95.444C163.092 95.4267 163.018 95.418 162.914 95.418C162.689 95.418 162.494 95.5307 162.329 95.756C162.173 95.9813 162.095 96.2977 162.095 96.705V99.084C162.095 99.2053 162.056 99.305 161.978 99.383C161.9 99.461 161.8 99.5 161.679 99.5H161.042C160.921 99.5 160.821 99.461 160.743 99.383C160.665 99.305 160.626 99.2053 160.626 99.084V94.677C160.626 94.547 160.665 94.443 160.743 94.365C160.821 94.2783 160.921 94.235 161.042 94.235H161.237C161.402 94.235 161.519 94.2957 161.588 94.417L161.991 94.95H162.095C162.104 94.924 162.121 94.8677 162.147 94.781C162.182 94.6943 162.242 94.6077 162.329 94.521C162.424 94.4257 162.554 94.3433 162.719 94.274C162.884 94.196 163.1 94.157 163.369 94.157C163.534 94.157 163.659 94.17 163.746 94.196C163.833 94.222 163.932 94.2653 164.045 94.326C164.175 94.4127 164.24 94.5297 164.24 94.677C164.24 94.7203 164.231 94.7637 164.214 94.807C164.205 94.8417 164.192 94.8807 164.175 94.924L164.006 95.366ZM169.2 99.136C169.2 99.2573 169.161 99.3613 169.083 99.448C169.005 99.5347 168.905 99.578 168.784 99.578H168.576C168.506 99.578 168.441 99.5563 168.381 99.513C168.32 99.4783 168.268 99.435 168.225 99.383L167.835 98.954H167.731C167.731 98.98 167.713 99.0277 167.679 99.097C167.644 99.1663 167.588 99.2357 167.51 99.305C167.432 99.3743 167.319 99.4393 167.172 99.5C167.033 99.552 166.855 99.578 166.639 99.578C166.119 99.578 165.69 99.4437 165.352 99.175C165.014 98.8977 164.845 98.4643 164.845 97.875C164.845 97.823 164.853 97.7147 164.871 97.55C164.888 97.3767 164.949 97.1947 165.053 97.004C165.165 96.8133 165.334 96.6443 165.56 96.497C165.785 96.3497 166.106 96.276 166.522 96.276C166.738 96.276 166.916 96.302 167.055 96.354C167.193 96.3973 167.306 96.4537 167.393 96.523C167.479 96.5837 167.54 96.6487 167.575 96.718C167.609 96.7787 167.627 96.822 167.627 96.848H167.731V96.458C167.713 96.224 167.674 96.0377 167.614 95.899C167.553 95.7517 167.475 95.639 167.38 95.561C167.284 95.4743 167.18 95.418 167.068 95.392C166.964 95.366 166.86 95.353 166.756 95.353C166.712 95.353 166.643 95.3573 166.548 95.366C166.461 95.3747 166.366 95.3833 166.262 95.392C166.158 95.4007 166.058 95.4093 165.963 95.418C165.876 95.4267 165.807 95.431 165.755 95.431C165.677 95.431 165.603 95.4093 165.534 95.366C165.464 95.3227 165.421 95.2663 165.404 95.197L165.352 94.911C165.343 94.8677 165.334 94.8243 165.326 94.781C165.326 94.729 165.326 94.6813 165.326 94.638C165.326 94.4907 165.391 94.3737 165.521 94.287C165.573 94.261 165.668 94.2393 165.807 94.222C165.945 94.2047 166.093 94.1917 166.249 94.183C166.405 94.1743 166.556 94.17 166.704 94.17C166.86 94.1613 166.977 94.157 167.055 94.157C167.315 94.157 167.57 94.1917 167.822 94.261C168.082 94.3303 168.311 94.456 168.511 94.638C168.719 94.8113 168.883 95.0453 169.005 95.34C169.135 95.6347 169.2 96.0073 169.2 96.458V99.136ZM166.99 98.408C167.163 98.3993 167.315 98.356 167.445 98.278C167.583 98.2 167.653 98.083 167.653 97.927C167.653 97.7797 167.583 97.667 167.445 97.589C167.306 97.511 167.154 97.472 166.99 97.472C166.825 97.472 166.669 97.5023 166.522 97.563C166.383 97.6237 166.314 97.7537 166.314 97.953C166.314 97.9963 166.318 98.044 166.327 98.096C166.344 98.148 166.374 98.2 166.418 98.252C166.47 98.2953 166.539 98.3343 166.626 98.369C166.721 98.395 166.842 98.408 166.99 98.408ZM171.031 94.235V92.363C171.031 92.2417 171.07 92.142 171.148 92.064C171.226 91.986 171.326 91.947 171.447 91.947H172.084C172.205 91.947 172.305 91.986 172.383 92.064C172.461 92.142 172.5 92.2417 172.5 92.363V94.235H173.462C173.583 94.235 173.683 94.274 173.761 94.352C173.839 94.43 173.878 94.5297 173.878 94.651V95.015C173.878 95.1363 173.839 95.236 173.761 95.314C173.683 95.392 173.583 95.431 173.462 95.431H172.5V97.277C172.509 97.511 172.53 97.6973 172.565 97.836C172.6 97.9747 172.643 98.0787 172.695 98.148C172.747 98.2173 172.812 98.265 172.89 98.291C172.968 98.3083 173.059 98.317 173.163 98.317C173.206 98.317 173.232 98.317 173.241 98.317C173.258 98.317 173.271 98.317 173.28 98.317C173.289 98.3083 173.302 98.304 173.319 98.304C173.336 98.304 173.371 98.304 173.423 98.304C173.501 98.304 173.57 98.3257 173.631 98.369C173.7 98.4123 173.748 98.4687 173.774 98.538L173.891 98.863C173.908 98.9063 173.921 98.9497 173.93 98.993C173.947 99.0277 173.956 99.0667 173.956 99.11C173.956 99.2573 173.891 99.3743 173.761 99.461C173.648 99.5217 173.51 99.5563 173.345 99.565C173.189 99.5737 173.029 99.578 172.864 99.578C172.604 99.578 172.361 99.5433 172.136 99.474C171.919 99.4047 171.729 99.2833 171.564 99.11C171.399 98.928 171.269 98.6897 171.174 98.395C171.079 98.1003 171.031 97.7277 171.031 97.277V95.431H170.355C170.234 95.431 170.134 95.392 170.056 95.314C169.978 95.236 169.939 95.1363 169.939 95.015V94.651C169.939 94.5297 169.978 94.43 170.056 94.352C170.134 94.274 170.234 94.235 170.355 94.235H171.031ZM177.04 98.33C177.292 98.33 177.469 98.2563 177.573 98.109C177.686 97.9617 177.742 97.771 177.742 97.537V96.224C177.742 95.99 177.686 95.7993 177.573 95.652C177.469 95.5047 177.292 95.431 177.04 95.431C176.806 95.431 176.633 95.5047 176.52 95.652C176.408 95.7993 176.351 95.99 176.351 96.224V97.537C176.351 97.771 176.408 97.9617 176.52 98.109C176.633 98.2563 176.806 98.33 177.04 98.33ZM177.04 99.578C176.633 99.578 176.291 99.5087 176.013 99.37C175.745 99.2313 175.524 99.058 175.35 98.85C175.186 98.6333 175.064 98.395 174.986 98.135C174.917 97.8663 174.882 97.602 174.882 97.342V96.406C174.882 96.146 174.917 95.8817 174.986 95.613C175.064 95.3443 175.186 95.106 175.35 94.898C175.524 94.6813 175.745 94.5037 176.013 94.365C176.291 94.2263 176.633 94.157 177.04 94.157C177.456 94.157 177.803 94.2263 178.08 94.365C178.358 94.5037 178.579 94.6813 178.743 94.898C178.917 95.106 179.038 95.3443 179.107 95.613C179.177 95.8817 179.211 96.146 179.211 96.406V97.342C179.211 97.602 179.177 97.8663 179.107 98.135C179.038 98.395 178.917 98.6333 178.743 98.85C178.579 99.058 178.358 99.2313 178.08 99.37C177.803 99.5087 177.456 99.578 177.04 99.578ZM183.85 95.366C183.824 95.4353 183.776 95.4917 183.707 95.535C183.646 95.5783 183.577 95.6 183.499 95.6C183.447 95.6 183.395 95.5913 183.343 95.574C183.3 95.5567 183.252 95.535 183.2 95.509C183.105 95.4743 183.031 95.4527 182.979 95.444C182.936 95.4267 182.862 95.418 182.758 95.418C182.533 95.418 182.338 95.5307 182.173 95.756C182.017 95.9813 181.939 96.2977 181.939 96.705V99.084C181.939 99.2053 181.9 99.305 181.822 99.383C181.744 99.461 181.644 99.5 181.523 99.5H180.886C180.765 99.5 180.665 99.461 180.587 99.383C180.509 99.305 180.47 99.2053 180.47 99.084V94.677C180.47 94.547 180.509 94.443 180.587 94.365C180.665 94.2783 180.765 94.235 180.886 94.235H181.081C181.246 94.235 181.363 94.2957 181.432 94.417L181.835 94.95H181.939C181.948 94.924 181.965 94.8677 181.991 94.781C182.026 94.6943 182.086 94.6077 182.173 94.521C182.268 94.4257 182.398 94.3433 182.563 94.274C182.728 94.196 182.944 94.157 183.213 94.157C183.378 94.157 183.503 94.17 183.59 94.196C183.677 94.222 183.776 94.2653 183.889 94.326C184.019 94.4127 184.084 94.5297 184.084 94.677C184.084 94.7203 184.075 94.7637 184.058 94.807C184.049 94.8417 184.036 94.8807 184.019 94.924L183.85 95.366ZM187.666 98.863C187.657 98.8977 187.64 98.954 187.614 99.032C187.596 99.11 187.549 99.1923 187.471 99.279C187.401 99.357 187.293 99.4263 187.146 99.487C186.998 99.5477 186.799 99.578 186.548 99.578C186.253 99.578 186.002 99.526 185.794 99.422C185.586 99.3093 185.412 99.162 185.274 98.98C185.144 98.7893 185.044 98.577 184.975 98.343C184.914 98.1003 184.884 97.849 184.884 97.589V94.651C184.884 94.5297 184.923 94.43 185.001 94.352C185.079 94.274 185.178 94.235 185.3 94.235H185.937C186.058 94.235 186.158 94.274 186.236 94.352C186.314 94.43 186.353 94.5297 186.353 94.651V97.55C186.353 97.7927 186.405 97.9963 186.509 98.161C186.621 98.3257 186.799 98.408 187.042 98.408C187.267 98.408 187.44 98.3343 187.562 98.187C187.683 98.0397 187.752 97.8533 187.77 97.628V94.664C187.77 94.5427 187.804 94.443 187.874 94.365C187.952 94.2783 188.051 94.235 188.173 94.235H188.836C188.957 94.235 189.052 94.2783 189.122 94.365C189.2 94.443 189.239 94.5427 189.239 94.664V99.357C189.239 99.9117 189.165 100.362 189.018 100.709C188.87 101.056 188.684 101.324 188.459 101.515C188.233 101.714 187.982 101.849 187.705 101.918C187.436 101.996 187.172 102.035 186.912 102.035C186.834 102.035 186.721 102.031 186.574 102.022C186.426 102.022 186.27 102.009 186.106 101.983C185.95 101.957 185.798 101.918 185.651 101.866C185.503 101.823 185.386 101.762 185.3 101.684C185.17 101.597 185.105 101.48 185.105 101.333C185.105 101.29 185.109 101.233 185.118 101.164C185.135 101.095 185.165 100.973 185.209 100.8C185.226 100.739 185.261 100.683 185.313 100.631C185.365 100.579 185.425 100.553 185.495 100.553C185.564 100.553 185.646 100.566 185.742 100.592C185.837 100.627 185.941 100.661 186.054 100.696C186.166 100.731 186.283 100.761 186.405 100.787C186.526 100.822 186.647 100.839 186.769 100.839C186.873 100.839 186.981 100.826 187.094 100.8C187.215 100.774 187.328 100.718 187.432 100.631C187.536 100.553 187.618 100.44 187.679 100.293C187.748 100.154 187.783 99.968 187.783 99.734V98.863H187.666ZM195.259 98.33C195.511 98.33 195.688 98.2563 195.792 98.109C195.905 97.9617 195.961 97.771 195.961 97.537V96.224C195.961 95.99 195.905 95.7993 195.792 95.652C195.688 95.5047 195.511 95.431 195.259 95.431C195.025 95.431 194.852 95.5047 194.739 95.652C194.627 95.7993 194.57 95.99 194.57 96.224V97.537C194.57 97.771 194.627 97.9617 194.739 98.109C194.852 98.2563 195.025 98.33 195.259 98.33ZM195.259 99.578C194.852 99.578 194.51 99.5087 194.232 99.37C193.964 99.2313 193.743 99.058 193.569 98.85C193.405 98.6333 193.283 98.395 193.205 98.135C193.136 97.8663 193.101 97.602 193.101 97.342V96.406C193.101 96.146 193.136 95.8817 193.205 95.613C193.283 95.3443 193.405 95.106 193.569 94.898C193.743 94.6813 193.964 94.5037 194.232 94.365C194.51 94.2263 194.852 94.157 195.259 94.157C195.675 94.157 196.022 94.2263 196.299 94.365C196.577 94.5037 196.798 94.6813 196.962 94.898C197.136 95.106 197.257 95.3443 197.326 95.613C197.396 95.8817 197.43 96.146 197.43 96.406V97.342C197.43 97.602 197.396 97.8663 197.326 98.135C197.257 98.395 197.136 98.6333 196.962 98.85C196.798 99.058 196.577 99.2313 196.299 99.37C196.022 99.5087 195.675 99.578 195.259 99.578ZM202.277 92.025C202.407 92.1117 202.472 92.2287 202.472 92.376C202.472 92.4193 202.463 92.4627 202.446 92.506C202.437 92.5407 202.424 92.5797 202.407 92.623L202.29 92.948C202.264 93.0173 202.216 93.0737 202.147 93.117C202.086 93.1603 202.017 93.182 201.939 93.182C201.844 93.182 201.77 93.1733 201.718 93.156C201.675 93.1387 201.61 93.13 201.523 93.13C201.419 93.13 201.319 93.143 201.224 93.169C201.137 93.195 201.059 93.2513 200.99 93.338C200.921 93.416 200.86 93.5287 200.808 93.676C200.765 93.8147 200.739 94.001 200.73 94.235H201.692C201.813 94.235 201.913 94.274 201.991 94.352C202.069 94.43 202.108 94.5297 202.108 94.651V95.015C202.108 95.1363 202.069 95.236 201.991 95.314C201.913 95.392 201.813 95.431 201.692 95.431H200.73V99.084C200.73 99.2053 200.691 99.305 200.613 99.383C200.535 99.461 200.435 99.5 200.314 99.5H199.677C199.556 99.5 199.456 99.461 199.378 99.383C199.3 99.305 199.261 99.2053 199.261 99.084V95.431H198.585C198.464 95.431 198.364 95.392 198.286 95.314C198.208 95.236 198.169 95.1363 198.169 95.015V94.651C198.169 94.5297 198.208 94.43 198.286 94.352C198.364 94.274 198.464 94.235 198.585 94.235H199.261C199.278 93.7843 199.339 93.4073 199.443 93.104C199.556 92.8007 199.699 92.558 199.872 92.376C200.054 92.194 200.258 92.064 200.483 91.986C200.717 91.908 200.964 91.869 201.224 91.869C201.389 91.869 201.575 91.882 201.783 91.908C202 91.9253 202.164 91.9643 202.277 92.025ZM208.341 99.578C207.933 99.578 207.569 99.5173 207.249 99.396C206.937 99.2747 206.672 99.1187 206.456 98.928C206.239 98.7287 206.074 98.5077 205.962 98.265C205.849 98.0137 205.793 97.758 205.793 97.498V92.298C205.793 92.1767 205.827 92.077 205.897 91.999C205.975 91.9123 206.074 91.869 206.196 91.869H206.859C206.98 91.869 207.075 91.9123 207.145 91.999C207.223 92.077 207.262 92.1767 207.262 92.298V97.472C207.262 97.6367 207.296 97.7753 207.366 97.888C207.435 97.992 207.522 98.0743 207.626 98.135C207.73 98.1957 207.842 98.239 207.964 98.265C208.094 98.291 208.219 98.304 208.341 98.304C208.453 98.304 208.57 98.2953 208.692 98.278C208.822 98.252 208.939 98.2087 209.043 98.148C209.147 98.0787 209.233 97.992 209.303 97.888C209.372 97.784 209.407 97.6453 209.407 97.472V92.298C209.407 92.1767 209.441 92.077 209.511 91.999C209.589 91.9123 209.688 91.869 209.81 91.869H210.473C210.594 91.869 210.689 91.9123 210.759 91.999C210.837 92.077 210.876 92.1767 210.876 92.298V97.498C210.876 97.758 210.819 98.0137 210.707 98.265C210.594 98.5077 210.429 98.7287 210.213 98.928C210.005 99.1187 209.74 99.2747 209.42 99.396C209.108 99.5173 208.748 99.578 208.341 99.578ZM215.526 94.235C215.647 94.235 215.747 94.274 215.825 94.352C215.903 94.43 215.942 94.5297 215.942 94.651V94.963C215.942 95.0323 215.925 95.1017 215.89 95.171C215.864 95.2317 215.838 95.2837 215.812 95.327L213.888 98.187H215.526C215.647 98.187 215.747 98.226 215.825 98.304C215.903 98.382 215.942 98.4817 215.942 98.603V99.084C215.942 99.2053 215.903 99.305 215.825 99.383C215.747 99.461 215.647 99.5 215.526 99.5H212.419C212.298 99.5 212.198 99.461 212.12 99.383C212.042 99.305 212.003 99.2053 212.003 99.084V98.72C212.003 98.6073 212.033 98.5163 212.094 98.447L214.07 95.548H212.419C212.298 95.548 212.198 95.509 212.12 95.431C212.042 95.353 212.003 95.2533 212.003 95.132V94.651C212.003 94.5297 212.042 94.43 212.12 94.352C212.198 94.274 212.298 94.235 212.419 94.235H215.526ZM218.114 91.869C218.235 91.869 218.335 91.908 218.413 91.986C218.491 92.064 218.53 92.1637 218.53 92.285V94.911H218.634C218.807 94.5903 219.006 94.3867 219.232 94.3C219.457 94.2047 219.678 94.157 219.895 94.157C220.163 94.157 220.393 94.2133 220.584 94.326C220.783 94.4387 220.943 94.5903 221.065 94.781C221.186 94.963 221.277 95.1753 221.338 95.418C221.398 95.652 221.429 95.899 221.429 96.159V97.589C221.429 97.849 221.394 98.1003 221.325 98.343C221.264 98.577 221.164 98.7893 221.026 98.98C220.887 99.162 220.714 99.3093 220.506 99.422C220.298 99.526 220.046 99.578 219.752 99.578C219.483 99.578 219.266 99.5433 219.102 99.474C218.946 99.4047 218.824 99.331 218.738 99.253C218.66 99.1663 218.603 99.084 218.569 99.006C218.543 98.9193 218.53 98.863 218.53 98.837H218.439L218.036 99.396C217.958 99.5173 217.836 99.578 217.672 99.578H217.464C217.342 99.578 217.243 99.539 217.165 99.461C217.095 99.3743 217.061 99.2703 217.061 99.149V92.285C217.061 92.1637 217.095 92.064 217.165 91.986C217.243 91.908 217.342 91.869 217.464 91.869H218.114ZM218.53 97.55C218.53 97.7927 218.59 97.9963 218.712 98.161C218.842 98.3257 219.024 98.408 219.258 98.408C219.5 98.408 219.678 98.3257 219.791 98.161C219.903 97.9963 219.96 97.7927 219.96 97.55V96.289C219.96 96.0463 219.903 95.8427 219.791 95.678C219.678 95.5133 219.5 95.431 219.258 95.431C219.024 95.431 218.842 95.5133 218.712 95.678C218.59 95.8427 218.53 96.0463 218.53 96.289V97.55ZM225.423 96.172C225.397 95.6607 225.168 95.405 224.734 95.405C224.509 95.405 224.336 95.4657 224.214 95.587C224.102 95.6997 224.037 95.8947 224.019 96.172H225.423ZM226.814 98.239C226.728 98.681 226.507 99.0147 226.151 99.24C225.796 99.4653 225.324 99.578 224.734 99.578C224.318 99.578 223.967 99.5087 223.681 99.37C223.404 99.2313 223.179 99.0537 223.005 98.837C222.841 98.6203 222.724 98.3777 222.654 98.109C222.585 97.8403 222.55 97.576 222.55 97.316V96.419C222.55 96.159 222.585 95.8947 222.654 95.626C222.724 95.3573 222.841 95.1147 223.005 94.898C223.179 94.6813 223.404 94.5037 223.681 94.365C223.967 94.2263 224.318 94.157 224.734 94.157C225.402 94.157 225.922 94.313 226.294 94.625C226.667 94.937 226.853 95.3313 226.853 95.808V96.848C226.853 96.9693 226.814 97.0733 226.736 97.16C226.658 97.2467 226.559 97.29 226.437 97.29H224.019V97.589C224.019 97.823 224.076 98.018 224.188 98.174C224.31 98.3213 224.492 98.395 224.734 98.395C224.873 98.395 225.012 98.3777 225.15 98.343C225.298 98.3083 225.41 98.2173 225.488 98.07C225.523 97.992 225.562 97.9313 225.605 97.888C225.649 97.8447 225.744 97.823 225.891 97.823H226.398C226.528 97.823 226.628 97.862 226.697 97.94C226.775 98.018 226.814 98.1177 226.814 98.239ZM229.581 96.172H229.724L231.245 94.456C231.367 94.352 231.458 94.2913 231.518 94.274C231.579 94.248 231.679 94.235 231.817 94.235H232.441C232.563 94.235 232.658 94.2783 232.727 94.365C232.805 94.443 232.844 94.5427 232.844 94.664L231.18 96.536V96.679L232.74 99.071C232.74 99.1923 232.701 99.2963 232.623 99.383C232.554 99.461 232.459 99.5 232.337 99.5H231.843C231.705 99.5 231.592 99.474 231.505 99.422C231.427 99.37 231.336 99.2747 231.232 99.136L230.244 97.589L229.581 98.239V99.071C229.581 99.1923 229.542 99.2963 229.464 99.383C229.395 99.461 229.3 99.5 229.178 99.5H228.515C228.394 99.5 228.294 99.461 228.216 99.383C228.147 99.2963 228.112 99.1923 228.112 99.071V92.298C228.112 92.1767 228.147 92.077 228.216 91.999C228.294 91.9123 228.394 91.869 228.515 91.869H229.178C229.3 91.869 229.395 91.9123 229.464 91.999C229.542 92.077 229.581 92.1767 229.581 92.298V96.172ZM233.835 94.664C233.835 94.5427 233.87 94.443 233.939 94.365C234.017 94.2783 234.117 94.235 234.238 94.235H234.901C235.023 94.235 235.118 94.2783 235.187 94.365C235.265 94.443 235.304 94.5427 235.304 94.664V99.071C235.304 99.1923 235.265 99.2963 235.187 99.383C235.118 99.461 235.023 99.5 234.901 99.5H234.238C234.117 99.5 234.017 99.461 233.939 99.383C233.87 99.2963 233.835 99.1923 233.835 99.071V94.664ZM233.835 92.727C233.835 92.6057 233.87 92.506 233.939 92.428C234.017 92.3413 234.117 92.298 234.238 92.298H234.901C235.023 92.298 235.118 92.3413 235.187 92.428C235.265 92.506 235.304 92.6057 235.304 92.727V93.208C235.304 93.3293 235.265 93.4333 235.187 93.52C235.118 93.598 235.023 93.637 234.901 93.637H234.238C234.117 93.637 234.017 93.598 233.939 93.52C233.87 93.4333 233.835 93.3293 233.835 93.208V92.727ZM238.403 99.578C238.152 99.578 237.875 99.5477 237.571 99.487C237.277 99.4263 237.034 99.3223 236.843 99.175C236.791 99.1317 236.744 99.0797 236.7 99.019C236.666 98.9583 236.648 98.8933 236.648 98.824C236.648 98.7807 236.653 98.707 236.661 98.603C236.679 98.4903 236.709 98.3473 236.752 98.174C236.77 98.1133 236.804 98.057 236.856 98.005C236.908 97.953 236.969 97.927 237.038 97.927C237.082 97.927 237.147 97.9487 237.233 97.992C237.32 98.0353 237.424 98.083 237.545 98.135C237.667 98.187 237.801 98.2347 237.948 98.278C238.096 98.3213 238.247 98.343 238.403 98.343C238.646 98.343 238.832 98.3257 238.962 98.291C239.092 98.2477 239.157 98.148 239.157 97.992C239.157 97.862 239.092 97.7537 238.962 97.667C238.832 97.5803 238.672 97.5023 238.481 97.433C238.291 97.355 238.083 97.277 237.857 97.199C237.632 97.1123 237.424 97.004 237.233 96.874C237.043 96.744 236.882 96.5837 236.752 96.393C236.622 96.2023 236.557 95.964 236.557 95.678C236.557 95.4613 236.588 95.262 236.648 95.08C236.709 94.8893 236.817 94.7247 236.973 94.586C237.138 94.4473 237.355 94.3433 237.623 94.274C237.892 94.196 238.234 94.157 238.65 94.157C238.728 94.157 238.832 94.1613 238.962 94.17C239.092 94.17 239.227 94.1787 239.365 94.196C239.504 94.2133 239.638 94.248 239.768 94.3C239.907 94.3433 240.02 94.404 240.106 94.482C240.236 94.5687 240.301 94.6857 240.301 94.833C240.301 94.8763 240.293 94.9327 240.275 95.002C240.267 95.0713 240.241 95.1927 240.197 95.366C240.18 95.4267 240.145 95.483 240.093 95.535C240.041 95.587 239.981 95.613 239.911 95.613C239.773 95.613 239.586 95.5827 239.352 95.522C239.118 95.4613 238.884 95.431 238.65 95.431C238.408 95.431 238.243 95.444 238.156 95.47C238.07 95.4873 238.026 95.5567 238.026 95.678C238.026 95.7733 238.091 95.86 238.221 95.938C238.351 96.0073 238.512 96.081 238.702 96.159C238.893 96.2283 239.101 96.3107 239.326 96.406C239.552 96.4927 239.76 96.601 239.95 96.731C240.141 96.861 240.301 97.0213 240.431 97.212C240.561 97.394 240.626 97.6193 240.626 97.888C240.626 98.1393 240.587 98.369 240.509 98.577C240.44 98.785 240.314 98.9627 240.132 99.11C239.959 99.2573 239.729 99.3743 239.443 99.461C239.166 99.539 238.819 99.578 238.403 99.578ZM242.323 94.235V92.363C242.323 92.2417 242.362 92.142 242.44 92.064C242.518 91.986 242.618 91.947 242.739 91.947H243.376C243.498 91.947 243.597 91.986 243.675 92.064C243.753 92.142 243.792 92.2417 243.792 92.363V94.235H244.754C244.876 94.235 244.975 94.274 245.053 94.352C245.131 94.43 245.17 94.5297 245.17 94.651V95.015C245.17 95.1363 245.131 95.236 245.053 95.314C244.975 95.392 244.876 95.431 244.754 95.431H243.792V97.277C243.801 97.511 243.823 97.6973 243.857 97.836C243.892 97.9747 243.935 98.0787 243.987 98.148C244.039 98.2173 244.104 98.265 244.182 98.291C244.26 98.3083 244.351 98.317 244.455 98.317C244.499 98.317 244.525 98.317 244.533 98.317C244.551 98.317 244.564 98.317 244.572 98.317C244.581 98.3083 244.594 98.304 244.611 98.304C244.629 98.304 244.663 98.304 244.715 98.304C244.793 98.304 244.863 98.3257 244.923 98.369C244.993 98.4123 245.04 98.4687 245.066 98.538L245.183 98.863C245.201 98.9063 245.214 98.9497 245.222 98.993C245.24 99.0277 245.248 99.0667 245.248 99.11C245.248 99.2573 245.183 99.3743 245.053 99.461C244.941 99.5217 244.802 99.5563 244.637 99.565C244.481 99.5737 244.321 99.578 244.156 99.578C243.896 99.578 243.654 99.5433 243.428 99.474C243.212 99.4047 243.021 99.2833 242.856 99.11C242.692 98.928 242.562 98.6897 242.466 98.395C242.371 98.1003 242.323 97.7277 242.323 97.277V95.431H241.647C241.526 95.431 241.426 95.392 241.348 95.314C241.27 95.236 241.231 95.1363 241.231 95.015V94.651C241.231 94.5297 241.27 94.43 241.348 94.352C241.426 94.274 241.526 94.235 241.647 94.235H242.323ZM250.465 99.136C250.465 99.2573 250.426 99.3613 250.348 99.448C250.27 99.5347 250.17 99.578 250.049 99.578H249.841C249.771 99.578 249.706 99.5563 249.646 99.513C249.585 99.4783 249.533 99.435 249.49 99.383L249.1 98.954H248.996C248.996 98.98 248.978 99.0277 248.944 99.097C248.909 99.1663 248.853 99.2357 248.775 99.305C248.697 99.3743 248.584 99.4393 248.437 99.5C248.298 99.552 248.12 99.578 247.904 99.578C247.384 99.578 246.955 99.4437 246.617 99.175C246.279 98.8977 246.11 98.4643 246.11 97.875C246.11 97.823 246.118 97.7147 246.136 97.55C246.153 97.3767 246.214 97.1947 246.318 97.004C246.43 96.8133 246.599 96.6443 246.825 96.497C247.05 96.3497 247.371 96.276 247.787 96.276C248.003 96.276 248.181 96.302 248.32 96.354C248.458 96.3973 248.571 96.4537 248.658 96.523C248.744 96.5837 248.805 96.6487 248.84 96.718C248.874 96.7787 248.892 96.822 248.892 96.848H248.996V96.458C248.978 96.224 248.939 96.0377 248.879 95.899C248.818 95.7517 248.74 95.639 248.645 95.561C248.549 95.4743 248.445 95.418 248.333 95.392C248.229 95.366 248.125 95.353 248.021 95.353C247.977 95.353 247.908 95.3573 247.813 95.366C247.726 95.3747 247.631 95.3833 247.527 95.392C247.423 95.4007 247.323 95.4093 247.228 95.418C247.141 95.4267 247.072 95.431 247.02 95.431C246.942 95.431 246.868 95.4093 246.799 95.366C246.729 95.3227 246.686 95.2663 246.669 95.197L246.617 94.911C246.608 94.8677 246.599 94.8243 246.591 94.781C246.591 94.729 246.591 94.6813 246.591 94.638C246.591 94.4907 246.656 94.3737 246.786 94.287C246.838 94.261 246.933 94.2393 247.072 94.222C247.21 94.2047 247.358 94.1917 247.514 94.183C247.67 94.1743 247.821 94.17 247.969 94.17C248.125 94.1613 248.242 94.157 248.32 94.157C248.58 94.157 248.835 94.1917 249.087 94.261C249.347 94.3303 249.576 94.456 249.776 94.638C249.984 94.8113 250.148 95.0453 250.27 95.34C250.4 95.6347 250.465 96.0073 250.465 96.458V99.136ZM248.255 98.408C248.428 98.3993 248.58 98.356 248.71 98.278C248.848 98.2 248.918 98.083 248.918 97.927C248.918 97.7797 248.848 97.667 248.71 97.589C248.571 97.511 248.419 97.472 248.255 97.472C248.09 97.472 247.934 97.5023 247.787 97.563C247.648 97.6237 247.579 97.7537 247.579 97.953C247.579 97.9963 247.583 98.044 247.592 98.096C247.609 98.148 247.639 98.2 247.683 98.252C247.735 98.2953 247.804 98.3343 247.891 98.369C247.986 98.395 248.107 98.408 248.255 98.408ZM254.75 96.276C254.75 96.042 254.694 95.8427 254.581 95.678C254.469 95.5133 254.291 95.431 254.048 95.431C253.823 95.431 253.645 95.5133 253.515 95.678C253.385 95.8427 253.32 96.042 253.32 96.276V99.084C253.32 99.2053 253.281 99.305 253.203 99.383C253.125 99.461 253.026 99.5 252.904 99.5H252.267C252.146 99.5 252.046 99.461 251.968 99.383C251.89 99.305 251.851 99.2053 251.851 99.084V94.677C251.851 94.547 251.89 94.443 251.968 94.365C252.046 94.2783 252.146 94.235 252.267 94.235H252.449C252.623 94.235 252.748 94.2957 252.826 94.417L253.216 94.924H253.32C253.329 94.898 253.359 94.8417 253.411 94.755C253.463 94.6683 253.541 94.5817 253.645 94.495C253.749 94.4083 253.875 94.3303 254.022 94.261C254.178 94.1917 254.356 94.157 254.555 94.157C254.841 94.157 255.088 94.2133 255.296 94.326C255.513 94.4387 255.686 94.5903 255.816 94.781C255.955 94.963 256.055 95.1753 256.115 95.418C256.185 95.652 256.219 95.899 256.219 96.159V99.084C256.219 99.2053 256.176 99.305 256.089 99.383C256.011 99.461 255.912 99.5 255.79 99.5H255.153C255.041 99.5 254.945 99.461 254.867 99.383C254.789 99.305 254.75 99.2053 254.75 99.084V96.276Z" fill="#22247B"/>
<path d="M134.291 73H48.9998C84.2928 126.429 101.805 126.998 135.928 76.1203C136.815 74.7985 135.883 73 134.291 73Z" fill="#DBDEEA"/>
<path d="M77.5 73H20.5C52.5 91.8 75 97 86.5 93L77.5 73Z" fill="#DBDEEA"/>
<path fill-rule="evenodd" clip-rule="evenodd" d="M48.9998 73C53.8164 80.2918 58.3019 86.5991 62.5436 91.9254C72.9467 94.7208 80.9872 94.9175 86.5 93L77.5 73H48.9998Z" fill="#BAC2CD"/>
<path d="M77.5 73H137.784C113.5 150.5 102 147.5 77.5 73Z" fill="#009F4B"/>
<path fill-rule="evenodd" clip-rule="evenodd" d="M137.587 73.6265C119.745 100.664 106.45 114.079 93.0118 113.679C88.3393 104.18 83.2816 90.5808 77.5 73H137.784C137.718 73.2094 137.653 73.4183 137.587 73.6265Z" fill="#00A652"/>
<path fill-rule="evenodd" clip-rule="evenodd" d="M92.9363 113.525C92.96 113.515 92.9865 113.509 93.0142 113.511C97.424 113.789 101.853 112.271 106.164 109.604C110.476 106.938 114.66 103.131 118.574 98.8491C126.225 90.4818 132.828 80.3261 137.333 73.3968L137.591 73H137.784C137.721 73.1994 137.659 73.3984 137.596 73.5967C133.093 80.5227 126.482 90.6898 118.818 99.0718C114.892 103.366 110.685 107.197 106.338 109.885C102.024 112.553 97.5614 114.101 93.0944 113.847C93.0417 113.74 92.989 113.633 92.9363 113.525Z" fill="white" fill-opacity="0.12"/>
<path d="M141.276 73H226.568C191.275 19.5706 173.762 19.0016 139.639 69.8797C138.753 71.2015 139.684 73 141.276 73Z" fill="#DBDEEA"/>
<path d="M198.067 73H255.067C223.067 54.2 200.567 49 189.067 53L198.067 73Z" fill="#DBDEEA"/>
<path fill-rule="evenodd" clip-rule="evenodd" d="M226.568 73C221.751 65.7082 217.266 59.4009 213.024 54.0746C202.621 51.2792 194.58 51.0825 189.067 53L198.067 73H226.568Z" fill="#BAC2CD"/>
<path d="M198.067 73H137.784C162.067 -4.5 173.567 -1.5 198.067 73Z" fill="#009F4B"/>
<path fill-rule="evenodd" clip-rule="evenodd" d="M137.98 72.3735C155.822 45.336 169.118 31.921 182.556 32.321C187.228 41.8201 192.286 55.4192 198.067 73H137.784C137.849 72.7906 137.915 72.5817 137.98 72.3735Z" fill="#00A652"/>
<path fill-rule="evenodd" clip-rule="evenodd" d="M182.631 32.4748C182.607 32.4854 182.581 32.4906 182.553 32.4889C178.143 32.2107 173.715 33.7293 169.403 36.3956C165.091 39.0618 160.908 42.8693 156.993 47.1509C149.343 55.5182 142.74 65.6739 138.235 72.6032L137.977 73H137.784C137.846 72.8006 137.909 72.6016 137.971 72.4033C142.474 65.4773 149.086 55.3102 156.749 46.9282C160.675 42.6344 164.882 38.8031 169.229 36.1149C173.544 33.447 178.006 31.8988 182.473 32.1535C182.526 32.2601 182.578 32.3672 182.631 32.4748Z" fill="white" fill-opacity="0.12"/>
<path fill-rule="evenodd" clip-rule="evenodd" d="M158.924 41.2765L158.746 41.1574L158.162 40.7634L158.118 40.7332L157.962 40.6278L157.906 40.6033L157.858 40.5988L157.694 40.646L157.326 40.7526L157.204 40.7879L156.968 40.858L156.851 40.8928L156.733 40.9278L155.716 41.2395L155.144 41.4238L154.954 41.485L152.856 42.1579L152.666 42.2191L152.665 42.2195L152.664 42.2199L152.663 42.2208L152.662 42.2216L152.662 42.223L152.661 42.2242L152.666 52.432L152.996 52.4497L154.324 52.5221L154.516 52.5625L154.765 52.6143L154.804 52.5915L154.867 52.4774L154.907 52.4312L155.002 52.3838L155.045 52.3528L155.068 52.3257L155.072 52.3073L155.057 52.2954L154.955 52.2704L154.924 52.2551L154.895 52.2343L154.85 52.184L154.811 52.1174L154.784 52.0426L154.775 51.9677L154.776 51.872L154.769 51.794L154.745 51.723L154.7 51.6487L154.664 51.5518L154.666 51.4664L154.682 51.3791L154.687 51.2769L154.642 51.0623L154.643 50.9574L154.7 50.8783L154.895 50.7866L154.979 50.7232L155.055 50.6104L155.167 50.4001L155.33 50.2393L155.522 50.1458L155.717 50.1379L156.005 50.188L156.099 50.1691L156.212 50.1138L156.251 50.1044L156.39 50.1109L156.429 50.1022L156.474 50.0697L156.467 50.0437L156.441 50.0144L156.427 49.9714L156.443 49.9356L156.521 49.9104L156.55 49.8777L156.633 49.6878L156.651 49.6239L156.647 49.5811L156.604 49.4875L156.592 49.4148L156.627 49.3855L156.682 49.3609L156.734 49.3013L156.752 49.2693L156.773 49.2418L156.81 49.2245L156.856 49.2161L156.902 49.2175L156.94 49.2311L156.97 49.2602L157.016 49.3294L157.049 49.3485L157.082 49.3455L157.156 49.3137L157.192 49.3075L157.237 49.3155L157.439 49.4109L157.508 49.4615L157.56 49.5317L157.581 49.6293L157.574 49.6794L157.563 49.7264L157.563 49.7689L157.587 49.8058L157.62 49.8143L157.75 49.7945L157.776 49.7792L157.783 49.7569L157.774 49.7327L157.75 49.7113L157.669 49.6143L157.518 49.3691L157.463 49.2409L157.401 49.1448L157.329 49.0889L157.074 48.9691L157.036 48.9348L157.025 48.8818L157.044 48.8416L157.081 48.8136L157.157 48.78L157.265 48.714L157.303 48.702L157.353 48.7036L157.572 48.7925L157.677 48.8168L157.781 48.8234L157.865 48.7985L157.908 48.7183L157.936 48.4841L157.974 48.4215L158.023 48.45L158.461 48.9658L158.597 49.0922L158.74 49.1567L158.83 49.173L158.89 49.1695L158.949 49.1534L159.008 49.1248L159.06 49.1193L159.109 49.1502L159.238 49.285L159.267 49.3312L159.286 49.3838L159.31 49.5934L159.337 49.6422L159.396 49.674L159.499 49.6854L159.547 49.7019L159.628 49.7892L159.679 49.8088L159.784 49.8119L160.214 49.7457L160.391 49.7617L160.481 49.7507L160.574 49.761L160.638 49.8314L160.694 49.9197L160.766 49.9842L160.856 50.0196L160.903 50.0476L160.928 50.0833L160.921 50.1291L160.887 50.1535L160.846 50.1707L160.812 50.195L160.794 50.3216L160.834 50.4558L160.84 50.5635L160.719 50.6105H160.718L160.681 50.6207L160.659 50.6476L160.655 50.6836L160.678 50.7222L160.707 50.7352L160.812 50.7315L161.026 50.8123L161.086 50.8638L161.133 50.9352L161.156 50.9706L161.187 51.0022L161.283 51.0593L161.312 51.0837L161.336 51.1151L161.356 51.1526L161.36 51.1912L161.336 51.2265L161.304 51.2309L161.265 51.213L161.194 51.1685L161.118 51.1444L161.054 51.1498L160.998 51.1885L160.946 51.2634L160.964 51.3581L161.027 51.4788L161.162 51.6708L161.181 51.7206L161.153 51.7547L161.069 51.7968L161.034 51.8275L161.008 51.8654L160.992 51.9117L160.966 52.1286L160.98 52.1925L161.038 52.2492L161.456 52.4643L161.579 52.5546L161.689 52.6653L161.747 52.7074L161.818 52.7277L161.94 52.7246L162.186 52.6424L162.596 52.6176L162.738 52.652L162.835 52.7528L162.848 52.7415L162.862 52.7267L162.901 52.66L162.908 52.6663L162.915 52.6904L162.926 52.7149L163.046 52.6942L163.082 52.6954L163.292 52.8442L163.374 52.8779L163.452 52.8752L163.522 52.8398L163.579 52.7769L163.618 52.6924L163.668 52.6639L163.688 52.5691L163.715 52.5124L163.761 52.49L163.836 52.4985L164.034 52.5507L164.211 52.6272L164.665 52.9622L164.705 53.0057L164.854 53.2566L164.871 53.3012L164.878 53.356L164.884 53.5452L164.894 53.5846L164.878 53.6047L164.901 53.6578L164.965 53.8825L164.988 54.0045L165.005 54.0616L165.027 54.0969L165.094 54.1701L165.117 54.2074L165.159 54.3714L165.186 54.4278L165.262 54.5288L165.274 54.5536L165.29 54.6143L165.294 54.6206L165.303 54.6381L165.347 54.6713L165.444 54.7002L165.612 54.7969L165.632 54.8208L165.638 54.9332L165.651 54.9823L165.703 55.0875L165.72 55.1356L165.727 55.1885L165.729 55.2589L165.737 55.313L165.799 55.4484L165.807 55.5049L165.796 55.5528L165.779 55.6009L165.771 55.6581L165.776 55.7189L165.812 55.8676L165.834 55.9382L165.98 56.122L166.002 56.1345L166.12 56.2527L167.918 57.5348L168.047 57.6575L168.266 57.9627L168.39 58.0898L169.226 58.6879L169.287 58.7197L169.347 58.7311L169.4 58.7197L169.557 58.641L169.619 58.6337L169.667 58.6637L169.728 58.7434L169.844 58.8926L170.272 59.2534L170.534 59.4044L170.833 59.5098L170.97 59.5956L171.433 60.0167L171.707 60.2024L172.244 60.5648L172.381 60.6105L172.52 60.5992L172.573 60.5696L172.671 60.4905L172.729 60.4669L172.798 60.473L173.003 60.5721L173.137 60.5936L173.194 60.6237L173.32 60.7248L173.452 60.7624L173.519 60.7931L173.579 60.8499L173.673 60.9692L173.879 61.0658L173.943 61.0848L174.098 61.0857L174.176 61.1069L174.25 61.1426L174.318 61.1914L174.343 61.2618L174.362 61.315L174.288 61.4606L174.175 61.6073L174.104 61.7337L174.096 61.8342L174.113 62.035L174.105 62.1367L174.06 62.3089L174.053 62.4001L174.08 62.4725L174.12 62.5069L174.153 62.5416L174.161 62.5824L174.129 62.635L174.091 62.6741L174.06 62.7177L174.055 62.7644L174.106 62.8032L174.145 62.7907L174.197 62.7866L174.246 62.7923L174.38 62.8492L174.406 62.8538L174.461 62.8562L174.482 62.8482L174.522 62.8135L174.544 62.8055L174.81 62.7937L174.997 62.7496L175.095 62.7518L175.132 62.7693L175.213 62.8277L175.256 62.8403L175.281 62.8633L175.315 62.9738L175.334 63.0126L175.375 63.0383L175.465 63.0729L175.506 63.1106L175.526 63.1543L175.541 63.2015L175.564 63.2404L175.61 63.2589L175.655 63.2499L175.733 63.1997L175.785 63.188L175.834 63.1838L175.878 63.1713L175.919 63.1502L175.96 63.12L176.026 63.0525L176.064 63.0243L176.106 63.0126L176.153 63.0357L176.191 63.141L176.225 63.1705L176.247 63.1622L176.262 63.1381L176.275 63.1128L176.287 63.1011L176.309 63.0984L176.347 63.0865L176.371 63.0837L176.394 63.0909L176.438 63.1245L176.461 63.1359L176.487 63.1392L176.559 63.1359L176.601 63.1464L176.637 63.168L176.661 63.2019L176.67 63.2494L176.68 63.212L176.718 63.1361L176.741 63.0499L176.752 62.9583L176.745 62.851L176.705 62.6496L176.712 62.5424L176.769 62.3854L176.856 62.2351L176.961 62.1022L177.071 61.9974L177.219 61.7908L177.279 61.6733L177.365 61.4115L177.401 61.3746L177.465 61.3531L177.56 61.3402L177.591 61.3307L177.601 61.3232L177.623 61.3072L177.638 61.2749L177.647 61.2358L177.662 61.192L177.663 61.1911L177.687 61.1421L177.767 61.0213L177.817 60.8792L177.85 60.7282L177.841 60.6289L177.792 60.5505L177.631 60.4067L177.525 60.3474L177.49 60.3118L177.415 60.1743L177.336 60.0979L177.316 60.0613L177.309 60.0237L177.305 59.9414L177.294 59.902L177.244 59.8268L177.229 59.7925L177.224 59.7356L177.23 59.5867L177.226 59.5343L177.199 59.4373L177.193 59.3898L177.209 59.3507L177.261 59.3143L177.271 59.2984L177.273 59.2692L177.264 59.2452L177.252 59.2222L177.246 59.1959L177.252 59.1397L177.275 59.1256L177.311 59.1268L177.359 59.117L177.393 59.0967L177.424 59.0691L177.45 59.0339L177.468 58.9907L177.47 58.9333L177.45 58.8809L177.391 58.7937L177.322 58.6418L177.291 58.6041L177.29 58.6036L177.274 58.5995L177.257 58.598L177.241 58.5995L177.225 58.6036L177.191 58.6285L177.157 58.6408L177.124 58.6345L177.092 58.6041L177.076 58.5947L177.042 58.5829L177.013 58.5826L176.984 58.5903L176.957 58.6038L176.802 58.6562L176.747 58.6571L176.487 58.6149L176.452 58.5801L176.45 58.5781L176.44 58.514L176.463 58.3116L176.459 58.2758L176.441 58.2441L176.427 58.2399L176.394 58.2471L176.38 58.2447L176.368 58.2325L176.352 58.2033L176.343 58.1932L176.263 58.1609L176.098 58.1547L175.852 58.0671L175.795 58.014L175.78 57.91L175.783 57.8727L175.787 57.8544L175.797 57.8428L175.812 57.8293L175.816 57.8258L175.838 57.8187L175.856 57.8243L175.87 57.8195L175.885 57.7326L175.911 57.6445L175.913 57.5478L175.926 57.4423L175.952 57.3413L175.971 57.3175L176.001 57.3137L176.054 57.3209L176.064 57.3185L176.073 57.3137L176.082 57.3059L176.089 57.2966L176.074 57.1802L176.115 57.1409L176.277 57.1154L176.467 56.9801L176.542 56.9558L176.638 56.9578L177.333 57.1378L177.637 57.1471L177.803 57.2066L177.903 57.2138L178.004 57.2043L178.129 57.1711L178.169 57.1527L178.147 57.1025L178.175 57.0631L178.261 57.0078L178.31 56.9563L178.338 56.9045L178.349 56.8413L178.369 56.4165L178.39 56.3597L178.414 56.3615L178.419 56.3637L178.441 56.3728L178.51 56.3113L178.543 56.3365L178.598 56.4249L178.625 56.4389L178.639 56.4217L178.643 56.3955L178.643 56.3823L178.643 56.3786L178.657 56.3389L178.664 56.3347L178.686 56.331L178.693 56.3257L178.718 56.2751L178.719 56.238L178.673 56.1411L178.653 56.084L178.646 56.0345L178.66 56.0139L178.703 56.0433L178.744 56.134L178.775 56.2482L178.822 56.3201L178.908 56.2839L178.901 56.2252L178.722 55.9783L178.712 55.9518L178.709 55.9269L178.713 55.8727L178.706 55.8526L178.67 55.8236L178.666 55.7998L178.692 55.7511L178.724 55.7768L178.77 55.8595L178.797 55.8512L178.869 55.7883L178.91 55.775L179.058 55.7983L179.104 55.7908L179.121 55.7583L179.124 55.7197L179.118 55.6792L179.104 55.6421L179.009 55.5738L178.533 55.6667L178.514 55.6705L178.442 55.6428L178.351 55.5857L178.299 55.5277L178.341 55.4979L178.424 55.476L178.537 55.446L178.582 55.4419L178.7 55.4625L178.748 55.4562L178.818 55.4156L178.859 55.3989L179.19 55.3477L179.236 55.3554L179.3 55.3878L179.37 55.4231L179.553 55.4779L179.655 55.4812L179.731 55.4461V55.3833L179.583 55.2503L179.575 55.1718L179.628 55.1651L179.706 55.195L179.772 55.1838L179.787 55.0536L179.774 54.9947L179.752 54.9443L179.699 54.8488L179.679 54.8014L179.635 54.6514L179.553 54.5131L179.554 54.458L179.627 54.4079L179.751 54.3976L179.78 54.3798L179.788 54.3437L179.774 54.2017L179.775 54.1034L179.79 54.0233L179.821 53.9536L179.873 53.8867L179.902 53.8625L179.934 53.8445L180 53.8228L180.037 53.827L180.064 53.849L180.09 53.8761L180.121 53.8955L180.186 53.9019L180.232 53.9449L180.312 54.0683L180.336 54.0899L180.387 54.1236L180.409 54.1506L180.447 54.2139L180.468 54.242L180.493 54.2653L180.556 54.2885L180.61 54.2718L180.659 54.2286L180.744 54.1204L180.785 54.0865L180.829 54.0641L181.204 53.9464L181.397 53.7985L181.608 53.7147L181.755 53.626L181.868 53.494L181.924 53.2109L182.001 53.1907L182.091 53.2284L182.116 53.2556L182.155 53.2988L182.16 53.3078L182.167 53.3158L182.231 53.3719L182.602 53.791L182.618 53.8145L182.614 53.8641L182.574 53.8491L182.504 53.7876L182.463 53.792L182.444 53.8259L182.449 53.872L182.481 53.9132L182.667 53.9563L182.745 54.0014L182.727 54.0914L182.723 54.1133L182.722 54.1146L182.691 54.1345L182.683 54.1456L182.68 54.1581L182.673 54.1684L182.64 54.176L182.623 54.1844L182.594 54.2073L182.563 54.2354L182.439 54.3368L182.368 54.4253L182.342 54.4474L182.311 54.4619L182.281 54.4703L182.253 54.483L182.225 54.5106L182.176 54.5938L182.156 54.6207L182.136 54.6286L181.996 54.6614L181.936 54.7005L181.904 54.7521L181.907 54.808L181.91 54.8205L181.914 54.8277L181.941 54.8669L181.94 54.866L181.944 54.8701L181.962 54.891L181.967 54.9022L181.94 54.9948L182.041 55.0398L182.084 55.0522L182.128 55.0482L182.166 55.0364L182.205 55.0323L182.25 55.0512L182.304 55.1396L182.331 55.2624L182.368 55.3752L182.45 55.434L182.535 55.4395L182.623 55.4323L182.913 55.3432L183.093 55.3269L183.135 55.331L183.208 55.2561L183.326 55.2358L183.563 55.2698L183.627 55.2634L183.656 55.2185L183.674 55.1597L183.705 55.1112L183.734 55.1025L183.755 55.1189L183.773 55.1468L183.794 55.1715L183.822 55.1837L183.856 55.1868L183.92 55.18L183.961 55.1829L184.025 55.2429L184.116 55.2712L184.135 55.303L184.152 55.3422L184.189 55.3776L184.232 55.4049L184.278 55.4228L184.374 55.4419L184.424 55.437L184.442 55.4064L184.447 55.3605L184.459 55.3097L184.496 55.2765L184.532 55.3078L184.561 55.3679L184.575 55.4218L184.575 55.5306L184.587 55.571L184.628 55.5889L184.656 55.5806L184.764 55.5174L184.796 55.4861L184.818 55.45L184.856 55.3657L184.919 55.3024L184.994 55.2981L185.074 55.3176L185.154 55.3243L185.178 55.3167L185.189 55.315L185.205 55.3185L185.23 55.3285L185.262 55.3339L185.291 55.3266L185.304 55.2978L185.292 55.277L185.264 55.2582L185.205 55.2308L185.167 55.203L185.152 55.1633L185.164 55.1256L185.34 55.0362L185.394 54.9828L185.423 54.9085L185.435 54.8588L185.454 54.8313L185.589 54.7566L185.624 54.7477L185.716 54.7428L185.732 54.742L185.769 54.7463L185.788 54.7613L185.78 54.7886L185.751 54.7984L185.716 54.8015L185.693 54.8084L185.683 54.8327L185.709 54.8417L185.801 54.8375L185.83 54.8486L185.951 54.919L186.006 54.9396L186.054 54.9296L186.095 54.8729L186.117 54.8057L186.119 54.7435L186.098 54.6903L186.009 54.6265L185.991 54.6024L185.991 54.5724L186.005 54.529L186.005 54.4813L185.961 54.4076L185.968 54.3634L186.028 54.3362L186.096 54.3956L186.163 54.4741L186.222 54.5031L186.3 54.5136L186.444 54.612L186.524 54.6073L186.556 54.5824L186.575 54.5496L186.585 54.5117L186.587 54.4723L186.603 54.4279L186.64 54.4282L186.715 54.4624L186.774 54.4351L186.798 54.2572L186.846 54.1827L186.918 54.1522L187.064 54.1147L187.239 54.0052L187.43 53.9346L187.526 53.8798L187.588 53.7976L187.578 53.7436L187.561 53.7397L187.515 53.7292L187.395 53.7368L187.354 53.7075L187.326 53.6682L187.293 53.6461L187.142 53.7157L187.048 53.7815L187.022 53.7853L187.028 53.7408L187.019 53.6623L186.94 53.641L186.678 53.6646L186.591 53.6541L186.512 53.6195L186.449 53.5506L186.362 53.4146L186.322 53.3994L186.272 53.3959L186.235 53.377L186.236 53.3154L186.239 53.2991L186.238 53.2854L186.232 53.2743L186.222 53.2662L186.113 53.2557L186.056 53.2388L186.013 53.2121L185.955 53.1208L185.928 53.1023L185.891 53.1323L185.88 53.1517L185.857 53.2224L185.842 53.2348L185.767 53.2453L185.65 53.2809L185.588 53.3L185.616 53.236L185.629 53.188V53.1354L185.611 52.9949L185.607 52.9182L185.598 52.8449L185.574 52.7932L185.522 52.7624L185.473 52.7702L185.425 52.8012L185.381 52.8407L185.321 52.8773L185.286 52.8587L185.254 52.8143L185.205 52.7734L185.044 52.8011L184.991 52.7754L184.98 52.662L184.985 52.547L184.973 52.4581L184.941 52.3782L184.75 52.0933L184.734 52.0783L184.717 52.0714L184.704 52.0828L184.702 52.1398L184.686 52.1542L184.667 52.1454L184.656 52.102L184.634 52.0929L184.625 52.1079L184.616 52.1373L184.604 52.1594L184.585 52.1523L184.583 52.1194L184.621 51.9676L184.62 51.9112L184.61 51.8586L184.584 51.8225L184.539 51.8157L184.494 51.8338L184.47 51.8638L184.429 51.9675L184.45 52.0133L184.507 52.087L184.515 52.1366L184.506 52.1905L184.477 52.2811L184.409 52.4275L184.353 52.4863L184.284 52.5L184.196 52.4619L184.098 52.37L184.07 52.363L184.057 52.3974L184.075 52.8625L184.064 52.956L184.019 52.9953L183.88 52.8753L183.829 52.9406L183.807 52.9922L183.78 52.9941L183.754 52.9663L183.734 52.9287L183.709 52.8273L183.686 52.7947L183.638 52.7907L183.596 52.8137L183.59 52.8509L183.6 52.8992L183.605 52.9556L183.585 53.0076L183.553 52.9859L183.501 52.8993L183.469 52.8729L183.393 52.8626L183.356 52.8419L183.314 52.8088L183.268 52.7879L183.172 52.7703L183.084 52.7835L183.044 52.7792L183.007 52.744L182.979 52.7053L182.945 52.671L182.909 52.6444L182.87 52.6281L182.824 52.6325L182.784 52.6515L182.751 52.6566L182.726 52.6199L182.723 52.5728L182.753 52.4072L182.749 52.3503L182.73 52.2952L182.615 52.0981L182.581 52.0521L182.543 52.0281L182.474 52.0386L182.224 52.1818L182.155 52.2084L182.142 52.2078L182.106 52.2061L182.075 52.1775L182.026 52.0839L181.996 52.0453L181.962 52.0143L181.886 51.9682L181.885 51.9677L181.598 51.9354L181.523 51.8959L181.486 51.8086L181.529 51.7385L181.858 51.5453L181.979 51.4492L182.046 51.417L182.107 51.3759L182.155 51.3043L182.215 51.1762L182.303 51.0716L182.504 50.8994L182.567 50.862L182.769 50.8388L182.84 50.8119L182.863 50.7662L182.869 50.6097L182.904 50.5098L182.988 50.4876L183.088 50.4921L183.172 50.472L183.459 50.2572L183.627 50.2083L183.703 50.1551L183.733 50.0531L183.726 50.0508L183.661 50.0287L183.376 49.8239L183.311 49.7971L183.247 49.806L183.157 49.8724L183.112 49.9144L182.974 50.0271L182.936 50.0469L182.898 50.0665L182.859 50.0721L182.821 50.0777L182.726 50.0515L182.678 50.0535L182.663 50.0731L182.649 50.0929L182.64 50.1182L182.632 50.1437L182.621 50.162L182.61 50.1803L182.582 50.2144L182.554 50.2485L182.53 50.2931L182.506 50.3376L182.488 50.3874L182.469 50.4373L182.447 50.4774L182.426 50.5177L182.394 50.5328L182.362 50.5481L182.338 50.5447L182.314 50.5414L182.292 50.5328L182.271 50.5243L182.255 50.5084L182.24 50.4924L182.225 50.4412L182.218 50.4233L182.21 50.4056L182.194 50.3874L182.178 50.369L182.159 50.3558L182.141 50.3424L182.126 50.3396L182.111 50.3366L181.912 50.4226L181.869 50.4603L181.825 50.498L181.8 50.5539L181.775 50.6094L181.768 50.6333L181.76 50.6571L181.747 50.6717L181.734 50.6862L181.718 50.695L181.701 50.7037L181.683 50.7103L181.664 50.7169L181.646 50.7268L181.629 50.7369L181.614 50.752L181.6 50.7672L181.531 50.8865L181.462 51.006L181.436 51.036L181.41 51.0662L181.241 51.1912L181.184 51.212L181.128 51.233L181.112 51.2457L181.096 51.2585L181.082 51.2795L181.068 51.3005L181.037 51.3369L181.006 51.3734L180.964 51.3915L180.922 51.4095L180.808 51.4136L180.695 51.418L180.421 51.4943L180.403 51.5079L180.386 51.5215L180.357 51.5553L180.328 51.589L180.225 51.6708L180.121 51.7523L180.063 51.7707L180.005 51.7891L179.979 51.8088L179.951 51.8286L179.938 51.864L179.925 51.8994L179.929 51.9138L179.933 51.928L179.949 51.9591L179.966 51.9904L179.969 52.0183L179.957 52.025L179.945 52.0321L179.884 52.0211L179.824 52.0099L179.809 52.0141L179.794 52.0183L179.754 52.0436L179.715 52.0688L179.7 52.071L179.685 52.0731L179.655 52.0623L179.625 52.0512L179.609 52.0546L179.592 52.0582L179.537 52.0933L179.481 52.1285L179.456 52.1531L179.432 52.1776L179.411 52.2337L179.392 52.2261L179.373 52.2187L179.354 52.2246L179.335 52.2306L179.288 52.2536L179.241 52.2768L179.233 52.2836L179.224 52.2907L179.22 52.3002L179.215 52.3097L179.218 52.3209L179.22 52.3321L179.239 52.3559L179.244 52.3596L179.249 52.363L179.252 52.368L179.255 52.3728L179.257 52.3886L179.26 52.4045L179.262 52.449L179.246 52.5772L179.23 52.7054L179.222 52.721L179.214 52.7364L179.197 52.7536L179.179 52.7707L179.145 52.7948L179.109 52.8187L179.073 52.8365L179.036 52.8546L178.949 52.866L178.928 52.8728L178.907 52.8797L178.894 52.8971L178.881 52.9146L178.855 52.9581L178.83 53.0019L178.76 53.0327L178.69 53.0634L178.662 53.0949L178.635 53.1264L178.597 53.2339L178.56 53.3414L178.539 53.3665L178.519 53.3919L178.438 53.4275L178.394 53.4468L178.365 53.4662L178.337 53.4856L178.326 53.5169L178.315 53.5485L178.31 53.5456L178.306 53.5425L178.296 53.5388L178.287 53.535L178.282 53.5325L178.278 53.5299L178.277 53.5447L178.277 53.5594L178.279 53.5893L178.282 53.6194L178.281 53.6324L178.28 53.6453L178.273 53.6604L178.266 53.6756L178.26 53.6805L178.253 53.6855L178.248 53.6924L178.242 53.6991L178.238 53.7197L178.234 53.7404L178.245 53.8524L178.255 53.9644L178.262 53.9898L178.268 54.0147L178.277 54.0254L178.285 54.0361L178.295 54.0416L178.305 54.0471L178.33 54.0532L178.356 54.0593L178.355 54.0758L178.354 54.0926L178.358 54.1097L178.361 54.1268L178.368 54.1431L178.375 54.1597L178.384 54.1744L178.393 54.1894L178.39 54.1983L178.389 54.2073L178.364 54.248L178.339 54.2884L178.359 54.2989L178.378 54.3092L178.372 54.3268L178.366 54.3443L178.344 54.3571L178.323 54.3699L178.295 54.3661L178.268 54.3619L178.228 54.3418L178.187 54.3216L178.175 54.3195L178.164 54.3175L178.154 54.3238L178.145 54.3302L178.133 54.3534L178.126 54.3628L178.118 54.3722L178.103 54.3713L178.087 54.3705L178.075 54.3832L178.062 54.3959L178.056 54.4094L177.659 54.2011L177.577 54.1584L177.508 54.1045L177.44 54.0508L177.254 53.8666L177.223 53.8491L177.192 53.8316L177.152 53.823L177.112 53.8143L177.105 53.8095L177.098 53.8047L177.101 53.7942L177.105 53.7837L177.114 53.7754L177.123 53.7671L177.159 53.751L177.194 53.7348L177.211 53.7213L177.228 53.708L177.258 53.6742L177.269 53.6566L177.281 53.639L177.296 53.6043L177.312 53.5694L177.327 53.5255L177.342 53.4817L177.352 53.4365L177.362 53.3914L177.362 53.3533L177.362 53.3149L177.354 53.2992L177.346 53.2835L177.341 53.2771L177.336 53.2708L177.328 53.2663L177.319 53.2618L177.328 53.2575L177.337 53.2532L177.36 53.2359L177.384 53.2187L177.381 53.2161L177.378 53.2133L177.368 53.2101L177.358 53.2069L177.361 53.1944L177.364 53.182L177.363 53.1791L177.363 53.176L177.359 53.1475L177.355 53.1189L177.333 53.1212L177.312 53.1232L177.284 53.1835L177.273 53.1693L177.262 53.155L177.249 53.1529L177.237 53.1511L177.224 53.1571L177.211 53.1633L177.199 53.1734L177.186 53.1835L177.173 53.1614L177.16 53.1393L177.151 53.0872L177.143 53.0352L177.123 52.9874L177.078 52.9286L177.033 52.8695L177.026 52.8547L177.019 52.8397L177.016 52.8379L177.014 52.8361L177.002 52.7978L176.989 52.7594L176.963 52.7761L176.938 52.7928L176.879 52.8319L176.82 52.8708L176.8 52.8737L176.781 52.8765L176.759 52.8687L176.736 52.8608L176.694 52.8386L176.651 52.8162L176.628 52.8097L176.604 52.8032L176.344 52.8187L175.915 52.8447L175.142 52.891L174.943 52.9026L174.707 52.9168L174.623 52.8951L174.54 52.8733L174.494 52.8179L174.449 52.7625L174.275 51.9674L174.145 51.2981L174.074 50.6104L174.069 50.6076L174.064 50.6046L174.057 50.603L174.05 50.6013L174.043 50.6011L174.035 50.6007L174.028 50.6018L174.02 50.6029L173.774 50.6018L173.084 50.5991L173.075 50.5924L173.066 50.5854L173.064 50.5707L173.062 50.556L173.076 49.5729L173.077 49.4899L173.083 49.4708L173.089 49.4519L173.137 49.4332L173.147 49.4096L173.157 49.386L173.168 49.2411L173.255 47.8705L172.668 48.1876L172.651 48.1857L172.633 48.1837L172.24 47.3747L172.067 47.0181L172.027 46.9825L171.986 46.9468L171.567 46.6842L171.365 46.4702L170.927 45.9002L170.892 45.8696L170.859 45.8392L170.826 45.834L170.794 45.8289L170.757 45.8429L170.721 45.8566L169.92 46.3007L169.885 46.3109L169.849 46.3211L169.737 46.3112L167.99 46.1527L167.371 46.0961L167.185 46.1265L165.885 46.3377L165.77 46.3587L165.541 46.4012L165.211 46.4619L165.139 46.4752L164.971 46.5059L164.966 46.5069L164.925 46.4891L164.884 46.4714L164.732 46.2968L163.924 45.3674L163.807 45.2325L163.665 45.0685L163.208 44.5756L163.089 44.3835L163.069 44.3174L163.056 44.1708L163.043 44.102L163.006 44.0268L162.953 43.9678L161.002 42.6699L160.186 42.1244L159.407 41.6013L158.924 41.2765ZM184.825 56.0172L184.816 55.9897L184.765 56.0056L184.691 56.0612L184.656 56.0785L184.605 56.0813L184.572 56.1206L184.592 56.1587L184.636 56.1902L184.675 56.2089L184.727 56.2247L184.759 56.2186L184.779 56.186L184.825 56.0172ZM183.282 55.5736L183.236 55.5448L183.172 55.5796L183.137 55.6621L183.125 55.7088L183.123 55.7528L183.134 55.7954L183.184 55.9058L183.207 55.9389L183.234 55.9531L183.288 55.9647L183.311 55.9834L183.321 56.0605L183.234 56.1972L183.237 56.2643L183.263 56.2773L183.292 56.2595L183.32 56.232L183.342 56.2157L183.381 56.2177L183.391 56.2403L183.396 56.2694L183.419 56.2914L183.449 56.2941L183.546 56.2683L183.614 56.2668L183.642 56.2563L183.664 56.2242L183.668 56.1429L183.578 56.0466L183.574 55.9783L183.607 55.946L183.701 55.8802L183.715 55.8388L183.699 55.8141L183.673 55.8094L183.621 55.8233L183.611 55.8295L183.588 55.8476L183.578 55.8513L183.563 55.8492L183.555 55.8444L183.548 55.8383L183.434 55.7906L183.379 55.7544L183.344 55.7106L183.316 55.6382L183.282 55.5736ZM182.335 53.2487L182.303 53.2572L182.326 53.3125L182.328 53.3148L182.362 53.3495L182.422 53.4297L182.456 53.4626L182.496 53.472L182.493 53.4261L182.467 53.3614L182.439 53.3155L182.391 53.2729L182.335 53.2487Z" fill="white"/>
</svg>
